<?xml version="1.0" encoding="UTF-8" standalone="no"?>
<!-- Created with Inkscape (http://www.inkscape.org/) -->

<svg
   xmlns:dc="http://purl.org/dc/elements/1.1/"
   xmlns:cc="http://creativecommons.org/ns#"
   xmlns:rdf="http://www.w3.org/1999/02/22-rdf-syntax-ns#"
   xmlns:svg="http://www.w3.org/2000/svg"
   xmlns="http://www.w3.org/2000/svg"
   xmlns:sodipodi="http://sodipodi.sourceforge.net/DTD/sodipodi-0.dtd"
   xmlns:inkscape="http://www.inkscape.org/namespaces/inkscape"
   width="744.09448819"
   height="1052.3622047"
   id="svg2"
   version="1.1"
   inkscape:version="0.47 r22583"
   sodipodi:docname="R.svg">
  <sodipodi:namedview
     id="base"
     pagecolor="#ffffff"
     bordercolor="#666666"
     borderopacity="1.0"
     inkscape:pageopacity="0.0"
     inkscape:pageshadow="2"
     inkscape:zoom="0.40599235"
     inkscape:cx="180.43729"
     inkscape:cy="415.27739"
     inkscape:document-units="px"
     inkscape:current-layer="layer1"
     showgrid="true"
     inkscape:window-width="1920"
     inkscape:window-height="1121"
     inkscape:window-x="0"
     inkscape:window-y="27"
     inkscape:window-maximized="1"
     inkscape:snap-bbox="true"
     inkscape:snap-object-midpoints="true"
     inkscape:snap-page="false"
     inkscape:snap-center="true"
     inkscape:snap-nodes="true"
     inkscape:snap-global="true"
     showguides="false"
     inkscape:snap-grids="true"
     inkscape:snap-to-guides="false">
    <inkscape:grid
       id="grid3998"
       type="xygrid" />
  </sodipodi:namedview>
  <defs
     id="defs4">
    <inkscape:perspective
       id="perspective10"
       inkscape:persp3d-origin="372.04724 : 350.78739 : 1"
       inkscape:vp_z="799.51424 : -210.286 : 1"
       inkscape:vp_y="0 : 1000 : 0"
       inkscape:vp_x="0 : 526.18109 : 1"
       sodipodi:type="inkscape:persp3d" />
    <inkscape:perspective
       sodipodi:type="inkscape:persp3d"
       inkscape:vp_x="0 : 0.5 : 1"
       inkscape:vp_y="0 : 1000 : 0"
       inkscape:vp_z="1 : 0.5 : 1"
       inkscape:persp3d-origin="0.5 : 0.33333333 : 1"
       id="perspective2882" />
    <inkscape:perspective
       sodipodi:type="inkscape:persp3d"
       inkscape:vp_x="0 : 0.5 : 1"
       inkscape:vp_y="0 : 1000 : 0"
       inkscape:vp_z="1 : 0.5 : 1"
       inkscape:persp3d-origin="0.5 : 0.33333333 : 1"
       id="perspective2914" />
    <inkscape:perspective
       sodipodi:type="inkscape:persp3d"
       inkscape:vp_x="0 : 0.5 : 1"
       inkscape:vp_y="0 : 1000 : 0"
       inkscape:vp_z="1 : 0.5 : 1"
       inkscape:persp3d-origin="0.5 : 0.33333333 : 1"
       id="perspective2960" />
    <inkscape:perspective
       sodipodi:type="inkscape:persp3d"
       inkscape:vp_x="0 : 0.5 : 1"
       inkscape:vp_y="0 : 1000 : 0"
       inkscape:vp_z="1 : 0.5 : 1"
       inkscape:persp3d-origin="0.5 : 0.33333333 : 1"
       id="perspective3779" />
    <inkscape:perspective
       sodipodi:type="inkscape:persp3d"
       inkscape:vp_x="0 : 0.5 : 1"
       inkscape:vp_y="0 : 1000 : 0"
       inkscape:vp_z="1 : 0.5 : 1"
       inkscape:persp3d-origin="0.5 : 0.33333333 : 1"
       id="perspective3801" />
    <inkscape:perspective
       sodipodi:type="inkscape:persp3d"
       inkscape:vp_x="0 : 0.5 : 1"
       inkscape:vp_y="0 : 1000 : 0"
       inkscape:vp_z="1 : 0.5 : 1"
       inkscape:persp3d-origin="0.5 : 0.33333333 : 1"
       id="perspective3842" />
    <inkscape:perspective
       sodipodi:type="inkscape:persp3d"
       inkscape:vp_x="0 : 0.5 : 1"
       inkscape:vp_y="0 : 1000 : 0"
       inkscape:vp_z="1 : 0.5 : 1"
       inkscape:persp3d-origin="0.5 : 0.33333333 : 1"
       id="perspective3868" />
    <inkscape:perspective
       sodipodi:type="inkscape:persp3d"
       inkscape:vp_x="0 : 0.5 : 1"
       inkscape:vp_y="0 : 1000 : 0"
       inkscape:vp_z="1 : 0.5 : 1"
       inkscape:persp3d-origin="0.5 : 0.33333333 : 1"
       id="perspective3890" />
    <inkscape:perspective
       sodipodi:type="inkscape:persp3d"
       inkscape:vp_x="0 : 0.5 : 1"
       inkscape:vp_y="0 : 1000 : 0"
       inkscape:vp_z="1 : 0.5 : 1"
       inkscape:persp3d-origin="0.5 : 0.33333333 : 1"
       id="perspective3921" />
    <inkscape:perspective
       sodipodi:type="inkscape:persp3d"
       inkscape:vp_x="0 : 0.5 : 1"
       inkscape:vp_y="0 : 1000 : 0"
       inkscape:vp_z="1 : 0.5 : 1"
       inkscape:persp3d-origin="0.5 : 0.33333333 : 1"
       id="perspective3947" />
    <inkscape:perspective
       sodipodi:type="inkscape:persp3d"
       inkscape:vp_x="0 : 0.5 : 1"
       inkscape:vp_y="0 : 1000 : 0"
       inkscape:vp_z="1 : 0.5 : 1"
       inkscape:persp3d-origin="0.5 : 0.33333333 : 1"
       id="perspective3972" />
    <inkscape:perspective
       sodipodi:type="inkscape:persp3d"
       inkscape:vp_x="0 : 0.5 : 1"
       inkscape:vp_y="0 : 1000 : 0"
       inkscape:vp_z="1 : 0.5 : 1"
       inkscape:persp3d-origin="0.5 : 0.33333333 : 1"
       id="perspective4014" />
    <inkscape:perspective
       sodipodi:type="inkscape:persp3d"
       inkscape:vp_x="0 : 0.5 : 1"
       inkscape:vp_y="0 : 1000 : 0"
       inkscape:vp_z="1 : 0.5 : 1"
       inkscape:persp3d-origin="0.5 : 0.33333333 : 1"
       id="perspective4041" />
    <inkscape:perspective
       sodipodi:type="inkscape:persp3d"
       inkscape:vp_x="0 : 0.5 : 1"
       inkscape:vp_y="0 : 1000 : 0"
       inkscape:vp_z="1 : 0.5 : 1"
       inkscape:persp3d-origin="0.5 : 0.33333333 : 1"
       id="perspective4063" />
    <inkscape:perspective
       sodipodi:type="inkscape:persp3d"
       inkscape:vp_x="0 : 0.5 : 1"
       inkscape:vp_y="0 : 1000 : 0"
       inkscape:vp_z="1 : 0.5 : 1"
       inkscape:persp3d-origin="0.5 : 0.33333333 : 1"
       id="perspective4121" />
    <inkscape:perspective
       sodipodi:type="inkscape:persp3d"
       inkscape:vp_x="0 : 0.5 : 1"
       inkscape:vp_y="0 : 1000 : 0"
       inkscape:vp_z="1 : 0.5 : 1"
       inkscape:persp3d-origin="0.5 : 0.33333333 : 1"
       id="perspective4176" />
    <inkscape:perspective
       sodipodi:type="inkscape:persp3d"
       inkscape:vp_x="0 : 0.5 : 1"
       inkscape:vp_y="0 : 1000 : 0"
       inkscape:vp_z="1 : 0.5 : 1"
       inkscape:persp3d-origin="0.5 : 0.33333333 : 1"
       id="perspective4228" />
    <filter
       id="filter5504"
       inkscape:label="Ink bleed"
       inkscape:menu="Protrusions"
       inkscape:menu-tooltip="Inky splotches underneath the object"
       color-interpolation-filters="sRGB">
      <feGaussianBlur
         id="feGaussianBlur5506"
         result="result1"
         in="SourceGraphic"
         stdDeviation="1.3" />
      <feTurbulence
         id="feTurbulence5508"
         result="result0"
         numOctaves="4"
         baseFrequency="0.034" />
      <feDisplacementMap
         id="feDisplacementMap5510"
         in2="result0"
         result="result2"
         scale="19.6"
         yChannelSelector="G"
         xChannelSelector="R"
         in="result1" />
      <feColorMatrix
         id="feColorMatrix5512"
         values="2 0 0 0 0 0 2 0 0 0 0 0 2 0 0 0 0 0 0.7 0"
         result="result3" />
      <feGaussianBlur
         id="feGaussianBlur5514"
         result="result4"
         in="SourceGraphic"
         stdDeviation="1.1" />
      <feComposite
         id="feComposite5516"
         in2="result3"
         in="result4" />
    </filter>
  </defs>
  <metadata
     id="metadata7">
    <rdf:RDF>
      <cc:Work
         rdf:about="">
        <dc:format>image/svg+xml</dc:format>
        <dc:type
           rdf:resource="http://purl.org/dc/dcmitype/StillImage" />
        <dc:title />
      </cc:Work>
    </rdf:RDF>
  </metadata>
  <g
     inkscape:label="Layer 1 copy"
     inkscape:groupmode="layer"
     id="g2838" />
  <g
     id="layer1"
     inkscape:groupmode="layer"
     inkscape:label="Layer 1">
    <path
       d="m 189.99604,51.76733 -40.06251,18.9375 C 77.702287,83.03699 39.371037,116.51775 39.371037,168.04858 c 0,11.4513 1.31147,18.92268 6.15625,35.21875 l 37,-18.9375 c -3.52348,-14.97477 -4.84375,-22.46376 -4.84375,-32.59375 0,-21.14085 6.62778,-37.8524 20.281245,-50.625 C 110.29694,90.10022 122.62073,85.22831 150.80853,81.70483 l -3.96875,15.875 c -1.76174,7.04695 -4.41696,17.15903 -7.5,30.8125 l -22,87.21875 c -18.498248,74.43342 -30.399763,85.87793 -87.656243,85.4375 l -17.1875,19.375 c 23.34303,0.44043 23.35739,0.4375 26,0.4375 22.90259,0 62.536963,-0.86913 75.749993,-1.75 l 32.59375,-16.71875 c -16.29607,-0.44043 -20.24764,-0.46288 -58.124993,-1.34375 49.769083,-49.76909 52.406093,-53.72108 66.500003,-109.65625 0.44043,-0.44043 0.875,-0.4375 0.875,-0.4375 4.84478,-0.44043 7.48239,3.52039 10.125,14.53125 4.9551,21.77635 9.71987,40.69233 14.4375,57.34375 l 37.625,0 c -7.50581,-21.77583 -15.91439,-47.71026 -25.625,-78.5 25.10476,-7.92782 35.22153,-12.75381 48.875,-21.5625 20.70042,-14.0939 32.59375,-34.35915 32.59375,-55.5 0,-27.30694 -22.01422,-42.28125 -62.09375,-42.28125 -5.28521,0 -16.31338,0.43457 -25.5625,0.875 l 3.53125,-14.09375 z m -6.59375,26.4375 13.65625,0 c 27.30694,0 38.75,10.11985 38.75,34.34375 0,22.02172 -11.908,43.1737 -30.40625,54.625 -13.21303,7.92782 -23.77904,11.01071 -47.5625,14.09375 l 25.5625,-103.0625 z m -2.83205,184.47169 c 2.6541,5.2867 5.37219,10.09302 8.18219,14.5 17.96634,28.1878 42.61795,41.84375 75.62589,41.84375 23.39805,0 37.6126,-5.28594 61.01063,-23.34375 l -20.4851,-26.875 c -13.3703,25.98563 -25.06055,36.125 -41.3556,36.125 -15.74566,0 -30.96909,-14.16149 -45.20952,-42.25 l -37.76849,0 z"
       style="font-size:144px;font-style:italic;font-variant:normal;font-weight:bold;font-stretch:normal;text-align:start;line-height:125%;writing-mode:lr-tb;text-anchor:start;fill:#000000;fill-opacity:1;stroke:none;font-family:URW Chancery L;-inkscape-font-specification:URW Chancery L Medium Italic"
       id="flowRoot2830-0-7" />
    <path
       id="flowRoot2830-0-0"
       d="m 534.51916,39.82357 -16.9375,8 1.90625,-7.625 -40.0625,18.9375 c -72.23125,12.332155 -110.5625,45.81291 -110.5625,97.34374 0,11.4513 1.31147,18.92268 6.15625,35.21875 l 13.1875,-6.75 c 0.5497,1.9862 1.15925,4.07261 1.84375,6.375 l 37,-18.9375 c -3.52348,-14.97477 -4.84375,-22.46376 -4.84375,-32.59375 0,-21.14085 6.62778,-37.8524 20.28125,-50.624995 9.78618,-8.73766 19.60519,-13.60009 37.3125,-17 l -3.46875,13.84375 c -1.76175,7.04695 -4.41697,17.159025 -7.5,30.812495 l -22,87.21875 c -16.4429,66.16304 -27.71299,82.54554 -70.21875,85.0625 -0.80162,-10e-4 -1.58617,0.006 -2.40625,0 l -0.125,0.15625 c -4.60474,0.20863 -9.55029,0.25995 -14.90625,0.21875 l -17.1875,19.375 c 23.34303,0.44043 23.35739,0.4375 26,0.4375 15.40861,0 38.24214,-0.38054 55.65625,-0.90625 0.29611,-0.009 0.58218,-0.0222 0.875,-0.0313 14.42305,-0.32739 27.64348,-0.74707 34.25,-1.1875 l 32.59375,-16.71875 c -16.29607,-0.44043 -20.24764,-0.46288 -58.125,-1.34375 44.84849,-44.84849 51.41868,-52.62132 62.59375,-94.625 4.89304,21.46714 9.61944,40.1581 14.28125,56.625 l -0.0625,0 c 0.0277,0.0551 0.0661,0.10124 0.0937,0.15625 2.62776,5.22168 5.31304,9.98271 8.09375,14.34375 17.96634,28.1878 42.61705,41.84375 75.625,41.84375 3.80719,0 7.35044,-0.1566 10.75,-0.46875 1.41445,0.0525 2.83485,0.0937 4.28125,0.0937 23.39805,0 37.63322,-5.28594 61.03125,-23.34375 l -20.5,-26.875 c -2.20977,4.29477 -4.35364,8.10767 -6.5,11.5625 l -8.53125,-11.1875 c -10.83459,21.05739 -20.58521,31.71714 -32.5625,35 -13.52451,-3.2617 -26.62185,-17.14638 -38.96875,-41.5 l -0.125,0 c -7.49256,-21.74452 -15.87445,-47.62554 -25.5625,-78.34375 25.10476,-7.92782 35.22153,-12.75381 48.875,-21.5625 20.70042,-14.0939 32.59375,-34.35915 32.59375,-55.499995 0,-27.30694 -22.01422,-42.281245 -62.09375,-42.281245 -3.19767,0 -8.54502,0.1518 -14.28125,0.375 -0.25115,-10e-4 -0.49742,0 -0.75,0 -2.47335,0 -6.25088,0.10359 -10.46875,0.25 l 3.46875,-13.84375 z m -6.6875,26.843745 c 26.37058,0.32001 37.46875,10.47662 37.46875,34.312495 0,22.02172 -11.908,43.1737 -30.40625,54.625 -9.92411,5.95447 -18.37175,9.17771 -32.03125,11.71875 L 527.83166,66.667315 z"
       style="font-size:144px;font-style:italic;font-variant:normal;font-weight:bold;font-stretch:normal;text-align:start;line-height:125%;writing-mode:lr-tb;text-anchor:start;fill:#000000;fill-opacity:1;stroke:none;font-family:URW Chancery L;-inkscape-font-specification:URW Chancery L Medium Italic" />
    <path
       d="m -349.25222,667.47921 c -11.27117,23.6438 -31.65865,26.0302 -59.50255,27.679 -0.80162,-0.001 -1.58617,0.01 -2.40625,0 l -0.125,0.1562 c -4.60474,0.2087 -10.74335,-0.1634 -16.09931,-0.2046 l -15.99444,19.7984 c 23.34303,0.4404 23.35739,0.4375 26,0.4375 15.40861,0 38.24214,-0.3805 55.65626,-0.9063 0.29611,-0.01 0.58218,-0.022 0.875,-0.031 14.42305,-0.3273 27.64348,-0.747 34.25,-1.1875 l 32.59375,-16.7187 c -16.29607,-0.4404 -20.24764,-0.4629 -58.125,-1.3438 13.78273,-13.7827 23.92168,-24.057 31.71875,-32.9062 l -26.726,0.6531 -2.11521,4.5742 z m 104.4792,-217.4798 -16.9375,8 1.90625,-7.625 -40.0625,18.9375 c -72.23125,12.3321 -110.56251,45.8129 -110.56251,97.3437 0,11.4513 1.31147,18.9227 6.15625,35.2188 l 13.1875,-6.75 c 0.5497,1.9862 1.15925,4.0726 1.84375,6.375 l 37.00001,-18.9375 c -3.52348,-14.9748 -4.84375,-22.4638 -4.84375,-32.5938 0,-21.1408 6.62778,-37.8524 20.28125,-50.625 9.78618,-8.7376 19.60519,-13.6001 37.3125,-17 l -3.46875,13.8438 c -1.76175,7.0469 -4.41697,17.159 -7.5,30.8125 l -22,87.2187 c -16.4429,66.1631 -27.71299,82.5456 -70.21876,85.0625 -0.80162,-10e-4 -1.58617,0.01 -2.40625,0 l -0.125,0.1563 c -4.60474,0.2086 -9.55029,0.2599 -14.90625,0.2187 l -17.1875,19.375 c 23.34303,0.4405 23.35739,0.4375 26,0.4375 15.40861,0 38.24215,-0.3805 55.65626,-0.9062 0.29611,-0.01 0.58218,-0.022 0.875,-0.031 14.42305,-0.3274 27.64348,-0.7471 34.25,-1.1875 l 32.59375,-16.7188 c -16.29607,-0.4404 -20.24764,-0.4628 -58.125,-1.3437 44.84849,-44.8485 51.41868,-52.6213 62.59375,-94.625 4.89304,21.4671 9.61944,40.1581 14.28125,56.625 l -0.0625,0 c 0.0277,0.055 0.0661,0.1012 0.0937,0.1562 2.62776,5.2217 5.31304,9.9827 8.09375,14.3438 17.96634,28.1878 42.61705,41.8437 75.625,41.8437 3.80719,0 7.35044,-0.1566 10.75,-0.4687 1.41445,0.053 2.83485,0.094 4.28125,0.094 23.39805,0 37.63322,-5.286 61.03125,-23.3438 l -20.5,-26.875 c -2.20977,4.2948 -4.35364,8.1077 -6.5,11.5625 l -8.53125,-11.1875 c -10.83459,21.0574 -20.58521,31.7172 -32.5625,35 -13.52451,-3.2617 -26.62185,-17.1463 -38.96875,-41.5 l -0.125,0 c -7.49256,-21.7445 -15.87445,-47.6255 -25.5625,-78.3437 25.10476,-7.9278 35.22153,-12.7538 48.875,-21.5625 20.70042,-14.0939 32.59375,-34.3592 32.59375,-55.5 0,-27.307 -22.01422,-42.2813 -62.09375,-42.2813 -3.19767,0 -8.54502,0.1518 -14.28125,0.375 -0.25115,-0.001 -0.49742,0 -0.75,0 -2.47335,0 -6.25088,0.1036 -10.46875,0.25 l 3.46875,-13.8437 z m -6.6875,26.8437 c 26.37058,0.32 37.46875,10.4767 37.46875,34.3125 0,22.0218 -11.908,43.1737 -30.40625,54.625 -9.92411,5.9545 -18.37175,9.1777 -32.03125,11.7188 l 24.96875,-100.6563 z"
       style="font-size:144px;font-style:italic;font-variant:normal;font-weight:bold;font-stretch:normal;text-align:start;line-height:125%;writing-mode:lr-tb;text-anchor:start;fill:#000000;fill-opacity:1;stroke:none;font-family:URW Chancery L;-inkscape-font-specification:URW Chancery L Medium Italic"
       id="flowRoot2830-0-3-7" />
    <path
       id="rect3830-2-5"
       d="m 505.625,917.36218 -23.34375,17.5 -275,5 40,25 162.8125,5.46875 63.53125,0 36.0625,0 0,-28.78125 30.3125,-24.1875 -34.375,0 z"
       style="fill:#050071;fill-opacity:0.8745098" />
    <path
       id="rect3830-2-5-9"
       d="m 1080,25.643433 0,226.718747 -82.53125,65.84375 -225.25,0 0,39.625 175.59375,0 63.5312,0 36.0626,0 0,-28.78125 35.375,-28.21875 36.8437,0 0,-18.3125 0,-11.09375 0,-48.90625 0,-50 0,-146.874997 -39.625,0 z"
       style="fill:#050071;fill-opacity:0.8745098" />
    <path
       id="rect3830-2-5-2"
       d="m 540,882.98723 17.5,-23.34375 5,-275 25,40 5.46875,162.8125 0,63.53125 0,36.0625 -28.78125,0 -24.1875,30.31245 0,-34.37495 z"
       style="fill:#050071;fill-opacity:0.8745098" />
    <path
       id="rect3830-2-5-28"
       d="m 494.99999,906.73719 -17.50002,23.34371 -5.00003,274.9999 -24.99997,-40 -5.46872,-162.8124 0,-63.53114 0,-36.06259 28.78123,0 L 495,872.36218 l -10e-6,34.37501 z"
       style="fill:#050071;fill-opacity:0.8745098" />
    <path
       id="rect3830-2-5-2-9"
       d="m 529.37495,872.36218 23.34375,-17.5 274.99995,-5 -39.99995,-25 -162.8125,-5.4688 -63.53125,0 -36.0625,0 0,28.7813 -30.31245,24.1875 34.37495,0 z"
       style="fill:#050071;fill-opacity:0.8745098" />
    <path
       d="m 1200,657.36218 a 175,165 0 1 1 -350,0 175,165 0 1 1 350,0 z"
       sodipodi:ry="165"
       sodipodi:rx="175"
       sodipodi:cy="657.36218"
       sodipodi:cx="1025"
       id="path4108"
       style="fill:#050071;fill-opacity:0.8745098"
       sodipodi:type="arc" />
    <path
       d="m 1200,657.36218 a 175,165 0 1 1 -350,0 175,165 0 1 1 350,0 z"
       sodipodi:ry="165"
       sodipodi:rx="175"
       sodipodi:cy="657.36218"
       sodipodi:cx="1025"
       id="path4108-7"
       style="fill:#050071;fill-opacity:0.8745098"
       sodipodi:type="arc"
       transform="translate(45,30)" />
    <path
       d="m 1110,981.86218 c -88.6358,0 -160.5,71.86422 -160.5,160.50002 0,88.6357 71.8642,160.5 160.5,160.5 88.6358,0 160.5,-71.8643 160.5,-160.5 0,-88.6358 -71.8642,-160.50002 -160.5,-160.50002 z m 0,1 c 88.0953,0 159.5,71.40462 159.5,159.50002 0,88.0953 -71.4047,159.5 -159.5,159.5 -88.0953,0 -159.5,-71.4047 -159.5,-159.5 0,-88.0954 71.4047,-159.50002 159.5,-159.50002 z m -31.1343,5.8284 c 41.6525,10.5057 -50.3479,271.14132 -89.3657,253.17162 -45.21162,-20.8223 252.8713,-226.1317 256.2083,-176.4676 2.8799,42.8603 -273.42903,35.9036 -268.39598,-6.7575 5.832,-49.4332 293.20558,170.6164 247.00338,189.1371 -39.8727,15.9835 -118.6406,-248.95162 -76.5122,-257.34792 48.816,-9.7292 -71.6603,331.57842 -103.5518,293.36072 -27.5225,-32.982 200.1051,-189.7642 221.1089,-152.2923 24.3379,43.4203 -337.4941,34.3104 -311.00197,-7.8302 22.86283,-36.3674 242.31237,131.671 213.16497,163.2262 -33.7743,36.5643 -136.9225,-310.37352 -88.6579,-298.20012 z"
       style="font-size:medium;font-style:normal;font-variant:normal;font-weight:normal;font-stretch:normal;text-indent:0;text-align:start;text-decoration:none;line-height:normal;letter-spacing:normal;word-spacing:normal;text-transform:none;direction:ltr;block-progression:tb;writing-mode:lr-tb;text-anchor:start;opacity:0.62660947;color:#000000;fill-opacity:1;fill-rule:nonzero;stroke:none;stroke-width:1;marker:none;visibility:visible;display:inline;overflow:visible;enable-background:accumulate;font-family:Bitstream Vera Sans;-inkscape-font-specification:Bitstream Vera Sans"
       id="path4153" />
    <path
       id="path4164"
       d="m 1110,942.36218 c -110.45695,0 -200,88.42382 -200,197.50002 0,109.0762 89.54305,197.5 200,197.5 110.4569,0 200,-88.4238 200,-197.5 0,-109.0762 -89.5431,-197.50002 -200,-197.50002 z m 0,40 c 88.3656,0 160,71.63442 160,160.00002 0,88.3656 -71.6344,160 -160,160 -88.3656,0 -160,-71.6344 -160,-160 0,-88.3656 71.6344,-160.00002 160,-160.00002 z"
       style="opacity:0.62660947;fill:#050071;fill-opacity:0.8745098" />
    <path
       d="m 1500,451.86218 c -88.6358,0 -160.5,71.8642 -160.5,160.5 0,88.6357 71.8642,160.5 160.5,160.5 88.6358,0 160.5,-71.8643 160.5,-160.5 0,-88.6358 -71.8642,-160.5 -160.5,-160.5 z m 0,1 c 88.0953,0 159.5,71.4046 159.5,159.5 0,88.0953 -71.4047,159.5 -159.5,159.5 -88.0953,0 -159.5,-71.4047 -159.5,-159.5 0,-88.0954 71.4047,-159.5 159.5,-159.5 z m -31.1343,5.8284 c 41.6525,10.5057 -50.3479,271.1413 -89.3657,253.1716 -45.2116,-20.8223 252.8713,-226.1317 256.2083,-176.4676 2.8799,42.8603 -273.429,35.9036 -268.396,-6.7575 5.832,-49.4332 293.2056,170.6164 247.0034,189.1371 -39.8727,15.9835 -118.6406,-248.9516 -76.5122,-257.3479 48.816,-9.7292 -71.6603,331.5784 -103.5518,293.3607 -27.5225,-32.982 200.1051,-189.7642 221.1089,-152.2923 24.3379,43.4203 -337.4941,34.3104 -311.002,-7.8302 22.8629,-36.3674 242.3124,131.671 213.165,163.2262 -33.7743,36.5643 -136.9225,-310.3735 -88.6579,-298.2001 z"
       style="font-size:medium;font-style:normal;font-variant:normal;font-weight:normal;font-stretch:normal;text-indent:0;text-align:start;text-decoration:none;line-height:normal;letter-spacing:normal;word-spacing:normal;text-transform:none;direction:ltr;block-progression:tb;writing-mode:lr-tb;text-anchor:start;opacity:0.62660947;color:#000000;fill-opacity:1;fill-rule:nonzero;stroke:none;stroke-width:1;marker:none;visibility:visible;display:inline;overflow:visible;enable-background:accumulate;font-family:Bitstream Vera Sans;-inkscape-font-specification:Bitstream Vera Sans"
       id="path4153-3" />
    <path
       id="path4153-6"
       d="m 231.125,1286.0312 c -110.45695,0 -200,88.4239 -200,197.5 0,109.0762 89.54305,197.5 200,197.5 110.4569,0 200,-88.4238 200,-197.5 0,-109.0761 -89.5431,-197.5 -200,-197.5 z m 0,40.5 c 88.0953,0 159.5,71.4047 159.5,159.5 0,88.0953 -71.4047,159.5 -159.5,159.5 -88.0953,0 -159.5,-71.4047 -159.5,-159.5 0,-88.0953 71.4047,-159.5 159.5,-159.5 z m -33.28125,5.5313 c -15.63987,-0.4064 -12.22993,43.9169 0.0313,98.6875 14.0654,-50.2186 18.73663,-94.1852 2.125,-98.375 -0.75413,-0.1902 -1.47521,-0.2948 -2.15625,-0.3125 z m 0.0313,98.6875 c -0.47653,1.7014 -0.93981,3.4106 -1.4375,5.125 -1.75972,-0.1446 -3.50956,-0.2781 -5.25,-0.4375 1.48871,0.9857 2.99889,1.9908 4.5,3 -6.0851,20.6058 -13.64491,41.9533 -21.84375,61.8125 -1.81064,-0.1575 -3.62028,-0.3318 -5.40625,-0.5 1.4611,0.9725 2.90812,1.9724 4.375,2.9688 -0.68015,1.6261 -1.34301,3.2404 -2.03125,4.8437 1.40289,-1.1156 2.85194,-2.2236 4.28125,-3.3437 17.71196,12.1517 35.68165,25.9133 52.03125,39.8437 -0.7149,1.6867 -1.43882,3.3718 -2.15625,5.0313 1.3829,-1.0943 2.77992,-2.189 4.1875,-3.2813 1.34351,1.1555 2.68097,2.3126 4,3.4687 -0.62975,-1.6847 -1.28035,-3.3822 -1.90625,-5.0937 17.04321,-13.1015 35.68351,-25.9341 54,-37.1875 1.38355,1.2015 2.73685,2.4295 4.09375,3.625 -0.61646,-1.6617 -1.20556,-3.3464 -1.8125,-5.0312 1.52015,-0.9244 3.04937,-1.8181 4.5625,-2.7188 -1.80445,0.079 -3.63986,0.1209 -5.46875,0.1875 -7.18686,-20.2432 -13.61743,-41.9316 -18.65625,-62.8125 1.55157,-0.9332 3.08704,-1.8709 4.625,-2.7812 -1.74284,0.071 -3.48872,0.1317 -5.25,0.1874 -0.41101,-1.7382 -0.82824,-3.4633 -1.21875,-5.1874 -0.48435,1.7461 -0.96528,3.5154 -1.46875,5.2812 -21.48283,0.5808 -44.10509,0.01 -65.53125,-1.6562 -0.41355,-1.7872 -0.82327,-3.5772 -1.21875,-5.3438 z m 68.21875,1.7188 c 15.65503,-56.4392 21.12266,-102.0181 2.84375,-98.375 -16.80102,3.3484 -14.36347,47.5137 -2.84375,98.375 z m 6.46875,5 c 52.13217,-2.1372 95.43021,-11.3069 94.28125,-28.4063 -1.24976,-18.6001 -43.86436,-1.4352 -94.28125,28.4063 z m 19.5,65.4062 c 58.51842,-2.5514 103.55113,-11.4595 94.4375,-27.7188 -8.37705,-14.945 -49.6215,1.0423 -94.4375,27.7188 z m -2.75,7.75 c 18.13802,48.8911 40.2241,87.1866 56.125,80.8125 17.29951,-6.9347 -12.18134,-42.0953 -56.125,-80.8125 z m -56.1875,38.6562 c 20.51092,54.8723 42.8831,94.9743 55.53125,81.2813 11.62647,-12.5869 -16.30368,-46.8978 -55.53125,-81.2813 z m -8.1875,-0.1874 c -40.90013,32.3618 -70.53944,65.2206 -59.5625,78.375 11.94298,14.312 36.31639,-24.6051 59.5625,-78.375 z m -54.15625,-41.5313 c -45.86428,36.4724 -77.091156,70.1693 -60.15625,77.9687 15.56639,7.1692 39.5752,-30.0236 60.15625,-77.9687 z m -2.34375,-7.8125 c -43.41821,-28.8994 -83.818745,-46.9113 -92.9375,-32.4062 -9.921952,15.7826 34.60738,26.9142 92.9375,32.4062 z m 22.75,-64.3125 c -48.86651,-32.3548 -90.56529,-51.643 -92.75,-33.125 -2.007992,17.0201 40.79075,28.3672 92.75,33.125 z m 9.21875,6.2187 c 10.1386,6.9216 20.48778,14.2975 30.78125,21.9688 10.6629,-7.141 21.37324,-14.0058 31.84375,-20.4062 -3.45213,11.7894 -7.28803,23.9249 -11.40625,36.0937 10.07691,7.9269 19.93531,15.9647 29.25,23.9375 -12.26832,0.3595 -24.9784,0.4683 -37.8125,0.3125 -4.43343,12.0575 -9.06753,23.9061 -13.78125,35.25 -4.13535,-11.5626 -8.11775,-23.6455 -11.9375,-35.9063 -12.83091,-0.49 -25.54138,-1.2108 -37.78125,-2.1874 9.71303,-7.5013 19.9327,-15.0518 30.40625,-22.4688 -3.49833,-12.3529 -6.7095,-24.6527 -9.5625,-36.5938 z m 9.5625,36.5938 c 2.3333,8.2391 4.82799,16.4808 7.375,24.6562 8.55522,0.3268 17.15805,0.5524 25.71875,0.6563 2.95317,-8.0317 5.81929,-16.1442 8.5625,-24.25 -6.74069,-5.3025 -13.56076,-10.5625 -20.4375,-15.6875 -7.12581,4.7722 -14.21978,9.6686 -21.21875,14.625 z"
       style="font-size:medium;font-style:normal;font-variant:normal;font-weight:normal;font-stretch:normal;text-indent:0;text-align:start;text-decoration:none;line-height:normal;letter-spacing:normal;word-spacing:normal;text-transform:none;direction:ltr;block-progression:tb;writing-mode:lr-tb;text-anchor:start;opacity:0.62660947;color:#000000;fill-opacity:1;fill-rule:nonzero;stroke:none;stroke-width:1;marker:none;visibility:visible;display:inline;overflow:visible;filter:url(#filter5504);enable-background:accumulate;font-family:Bitstream Vera Sans;-inkscape-font-specification:Bitstream Vera Sans"
       transform="matrix(0.51848958,0,0,0.48136923,153.9746,-131.40654)" />
  </g>
</svg>
