<?xml version="1.0" encoding="UTF-8" standalone="no"?>
<!-- Created with Inkscape (http://www.inkscape.org/) -->
<svg
   xmlns:dc="http://purl.org/dc/elements/1.1/"
   xmlns:cc="http://creativecommons.org/ns#"
   xmlns:rdf="http://www.w3.org/1999/02/22-rdf-syntax-ns#"
   xmlns:svg="http://www.w3.org/2000/svg"
   xmlns="http://www.w3.org/2000/svg"
   xmlns:sodipodi="http://sodipodi.sourceforge.net/DTD/sodipodi-0.dtd"
   xmlns:inkscape="http://www.inkscape.org/namespaces/inkscape"
   width="744.09448819"
   height="1052.3622047"
   id="svg2501"
   sodipodi:version="0.32"
   inkscape:version="0.46"
   sodipodi:docname="teste.svg"
   inkscape:output_extension="org.inkscape.output.svg.inkscape">
  <sodipodi:namedview
     id="base"
     pagecolor="#ffffff"
     bordercolor="#666666"
     borderopacity="1.0"
     gridtolerance="10000"
     guidetolerance="10"
     objecttolerance="10"
     inkscape:pageopacity="0.0"
     inkscape:pageshadow="2"
     inkscape:zoom="0.7"
     inkscape:cx="325.361"
     inkscape:cy="645.2728"
     inkscape:document-units="px"
     inkscape:current-layer="layer1"
     showgrid="true"
     inkscape:window-width="1278"
     inkscape:window-height="1024"
     inkscape:window-x="0"
     inkscape:window-y="-23"
     showguides="true"
     inkscape:guide-bbox="true">
    <inkscape:grid
       type="axonomgrid"
       id="grid2511"
       units="mm"
       visible="true"
       enabled="true" />
    <inkscape:grid
       type="xygrid"
       id="grid2532"
       visible="true"
       enabled="false" />
  </sodipodi:namedview>
  <defs
     id="defs2503">
    <linearGradient
       id="linearGradient4186">
      <stop
         style="stop-color:#c87137;stop-opacity:1;"
         offset="0"
         id="stop4188" />
      <stop
         style="stop-color:#c87137;stop-opacity:0;"
         offset="1"
         id="stop4190" />
    </linearGradient>
    <inkscape:path-effect
       effect="envelope"
       id="path-effect3011"
       is_visible="true"
       yy="true"
       xx="false"
       bendpath1="m 414.98916,326.99083 21.62425,-8.82453"
       bendpath2="m 448.59511,312.49307 -0.005,29.90194"
       bendpath3="M 440.20988,339.8714 466.2482,330.417"
       bendpath4="m 432.01682,312.49045 -0.005,29.90194"
       bendpath3-nodetypes="cc"
       bendpath1-nodetypes="cc" />
    <inkscape:path-effect
       bendpath1-nodetypes="cc"
       bendpath3-nodetypes="cc"
       bendpath4="m 432.01682,312.49045 -0.005,29.90194"
       bendpath3="M 440.20988,339.8714 466.2482,330.417"
       bendpath2="m 448.59511,312.49307 -0.005,29.90194"
       bendpath1="m 414.98916,326.99083 21.62425,-8.82453"
       xx="false"
       yy="true"
       is_visible="true"
       id="path-effect3007"
       effect="envelope" />
    <inkscape:path-effect
       effect="envelope"
       id="path-effect3820"
       is_visible="true"
       yy="true"
       xx="false"
       bendpath1="m 414.98916,326.99083 21.62425,-8.82453"
       bendpath2="m 448.59511,312.49307 -0.005,29.90194"
       bendpath3="M 440.20988,339.8714 466.2482,330.417"
       bendpath4="m 432.01682,312.49045 -0.005,29.90194"
       bendpath3-nodetypes="cc"
       bendpath1-nodetypes="cc" />
    <inkscape:perspective
       sodipodi:type="inkscape:persp3d"
       inkscape:vp_x="0 : 526.18109 : 1"
       inkscape:vp_y="0 : 1000 : 0"
       inkscape:vp_z="744.09448 : 526.18109 : 1"
       inkscape:persp3d-origin="372.04724 : 350.78739 : 1"
       id="perspective2509" />
    <inkscape:perspective
       id="perspective4468"
       inkscape:persp3d-origin="372.04724 : 350.78739 : 1"
       inkscape:vp_z="744.09448 : 526.18109 : 1"
       inkscape:vp_y="0 : 1000 : 0"
       inkscape:vp_x="0 : 526.18109 : 1"
       sodipodi:type="inkscape:persp3d" />
    <filter
       inkscape:collect="always"
       id="filter4541">
      <feGaussianBlur
         inkscape:collect="always"
         stdDeviation="3.1790711"
         id="feGaussianBlur4543" />
    </filter>
  </defs>
  <metadata
     id="metadata2506">
    <rdf:RDF>
      <cc:Work
         rdf:about="">
        <dc:format>image/svg+xml</dc:format>
        <dc:type
           rdf:resource="http://purl.org/dc/dcmitype/StillImage" />
      </cc:Work>
    </rdf:RDF>
  </metadata>
  <g
     inkscape:label="Layer 1"
     inkscape:groupmode="layer"
     id="layer1">
    <path
       style="fill:#b3b3b3;fill-rule:evenodd;stroke:#b3b3b3;stroke-width:1px;stroke-linecap:butt;stroke-linejoin:miter;stroke-opacity:1;filter:url(#filter4541)"
       d="M 306.8594,503.14958 L 122.74376,396.85037 L 306.8594,290.55115 L 490.97503,396.85037 L 306.8594,503.14958 z"
       id="path4507" />
    <path
       d="M 529.98138,670.75385 C 529.98138,670.75385 529.98138,674.15644 529.98138,674.15644 C 529.98138,674.15644 527.7204,675.46182 527.7204,675.46182 C 527.7204,675.46182 527.7204,689.06164 527.7204,689.06164 C 527.7204,689.06164 523.91292,691.25989 523.91292,691.25989 C 523.91292,691.25989 523.91292,677.66007 523.91292,677.66007 C 523.91292,677.66007 521.66097,678.96023 521.66097,678.96023 C 521.66097,678.96023 521.66097,675.55764 521.66097,675.55764 C 521.66097,675.55764 529.98138,670.75385 529.98138,670.75385 M 539.60406,665.19819 C 539.60406,665.19819 539.60406,682.2006 539.60406,682.2006 C 539.60406,682.2006 535.79658,684.39885 535.79658,684.39885 C 535.79658,684.39885 535.79658,677.25761 535.79658,677.25761 C 535.79658,677.25761 534.65706,677.91551 534.65706,677.91551 C 534.65706,677.91551 534.65706,685.05676 534.65706,685.05676 C 534.65706,685.05676 530.84958,687.25501 530.84958,687.25501 C 530.84958,687.25501 530.84958,670.25259 530.84958,670.25259 C 530.84958,670.25259 534.65706,668.05434 534.65706,668.05434 C 534.65706,668.05434 534.65706,674.13486 534.65706,674.13486 C 534.65706,674.13486 535.79658,673.47695 535.79658,673.47695 C 535.79658,673.47695 535.79658,667.39644 535.79658,667.39644 C 535.79658,667.39644 539.60406,665.19819 539.60406,665.19819 M 544.93093,662.12272 C 544.93093,662.12272 544.93093,679.12513 544.93093,679.12513 C 544.93093,679.12513 541.12345,681.32338 541.12345,681.32338 C 541.12345,681.32338 541.12345,664.32097 541.12345,664.32097 C 541.12345,664.32097 544.93093,662.12272 544.93093,662.12272 M 554.50841,661.73903 C 554.50841,661.73903 550.97227,663.78062 550.97227,663.78062 C 550.97227,663.78062 550.97227,662.52041 550.97227,662.52041 C 550.97224,661.93232 550.927,661.58388 550.8366,661.47503 C 550.7462,661.36621 550.59542,661.37278 550.3844,661.49458 C 550.15528,661.62689 549.98043,661.83628 549.85987,662.12297 C 549.74525,662.4062 549.68803,662.7683 549.68803,663.20937 C 549.68803,663.77646 549.75436,664.16523 549.88698,664.37572 C 550.01361,664.58965 550.37233,664.72911 550.96322,664.79401 C 552.65744,664.9851 553.7246,665.3281 554.16476,665.82313 C 554.6049,666.31813 554.82493,667.3988 554.82496,669.06507 C 554.82493,670.27629 554.70136,671.24029 554.45417,671.9571 C 554.21299,672.67044 553.74269,673.42507 553.04331,674.22093 C 552.34392,675.00979 551.52995,675.67227 550.60145,676.20834 C 549.58252,676.79662 548.7113,677.07557 547.98778,677.04521 C 547.2703,677.01137 546.8,676.7123 546.57692,676.14799 C 546.35383,675.58367 546.24229,674.66439 546.24229,673.39017 C 546.24229,673.39017 546.24229,672.27697 546.24229,672.27697 C 546.24229,672.27697 549.77846,670.23536 549.77846,670.23536 C 549.77846,670.23536 549.77846,672.30423 549.77846,672.30423 C 549.77846,672.94134 549.82675,673.32304 549.92318,673.44939 C 550.02561,673.57228 550.20351,673.5606 550.45676,673.41435 C 550.70998,673.26819 550.89689,673.04479 551.01748,672.74408 C 551.14408,672.43996 551.20739,672.06034 551.20739,671.60525 C 551.20739,670.60409 551.08982,670.01736 550.8547,669.84506 C 550.61351,669.67626 550.01961,669.50452 549.07304,669.32993 C 548.12644,669.14831 547.49939,668.98177 547.19191,668.8302 C 546.8844,668.67871 546.62816,668.37157 546.42318,667.90881 C 546.22419,667.44259 546.12472,666.75791 546.12475,665.85474 C 546.12472,664.55252 546.26642,663.51855 546.5498,662.75282 C 546.83918,661.98366 547.30345,661.24653 547.94257,660.54146 C 548.58166,659.82945 549.3534,659.21233 550.2578,658.69017 C 551.24657,658.11931 552.08766,657.81923 552.78104,657.78997 C 553.48043,657.75727 553.94165,657.96007 554.16476,658.39832 C 554.39385,658.82617 554.50841,659.7157 554.50841,661.06693 C 554.50841,661.06693 554.50841,661.73903 554.50841,661.73903 M 567.35076,654.3245 C 567.35076,654.3245 563.81459,656.3661 563.81459,656.3661 C 563.81459,656.3661 563.81459,655.1059 563.81459,655.1059 C 563.81459,654.51779 563.76932,654.16937 563.67895,654.0605 C 563.58852,653.9517 563.43777,653.95824 563.22672,654.08006 C 562.99763,654.21236 562.82278,654.42175 562.70219,654.70846 C 562.5876,654.99166 562.53035,655.35378 562.53035,655.79485 C 562.53035,656.36194 562.59668,656.75071 562.72933,656.96119 C 562.85593,657.17513 563.21468,657.31458 563.80554,657.37949 C 565.49976,657.57058 566.56695,657.91357 567.00708,658.40861 C 567.44722,658.90362 567.66728,659.98426 567.66728,661.65055 C 567.66728,662.86176 567.54368,663.82577 567.29649,664.54258 C 567.05531,665.25593 566.58504,666.01054 565.88566,666.8064 C 565.18624,667.59527 564.3723,668.25774 563.4438,668.79381 C 562.42484,669.3821 561.55362,669.66105 560.8301,669.63069 C 560.11262,669.59685 559.64235,669.29777 559.41927,668.73345 C 559.19618,668.16914 559.08464,667.24985 559.08464,665.97564 C 559.08464,665.97564 559.08464,664.86243 559.08464,664.86243 C 559.08464,664.86243 562.62081,662.82083 562.62081,662.82083 C 562.62081,662.82083 562.62081,664.88969 562.62081,664.88969 C 562.62078,665.52682 562.66907,665.90852 562.7655,666.03487 C 562.86796,666.15774 563.04586,666.14606 563.29908,665.99983 C 563.55233,665.85366 563.73921,665.63027 563.85981,665.32956 C 563.98643,665.02543 564.04974,664.6458 564.04974,664.19072 C 564.04974,663.18956 563.93217,662.60282 563.69702,662.43054 C 563.45584,662.26174 562.86196,662.08999 561.91536,661.91541 C 560.96876,661.73379 560.34174,661.56724 560.03423,661.41568 C 559.72675,661.26418 559.47052,660.95703 559.2655,660.4943 C 559.06655,660.02806 558.96707,659.34338 558.96707,658.44022 C 558.96707,657.13798 559.10874,656.10403 559.39212,655.3383 C 559.68153,654.56913 560.14577,653.83201 560.78489,653.12695 C 561.42398,652.41493 562.19572,651.79781 563.10013,651.27566 C 564.08892,650.70477 564.92998,650.40472 565.62336,650.37545 C 566.32275,650.34275 566.784,650.54554 567.00708,650.9838 C 567.2362,651.41164 567.35073,652.30118 567.35076,653.6524 C 567.35076,653.6524 567.35076,654.3245 567.35076,654.3245 M 572.67762,646.10317 C 572.67762,646.10317 572.67762,663.10557 572.67762,663.10557 C 572.67762,663.10557 568.87012,665.30384 568.87012,665.30384 C 568.87012,665.30384 568.87012,648.30143 568.87012,648.30143 C 568.87012,648.30143 572.67762,646.10317 572.67762,646.10317 M 574.18794,645.23119 C 574.18794,645.23119 577.03675,643.58642 577.03675,643.58642 C 578.87568,642.52471 580.1177,641.9056 580.76285,641.7292 C 581.414,641.54929 581.9084,641.5859 582.24604,641.83904 C 582.58369,642.09218 582.7947,642.47096 582.87913,642.97527 C 582.96353,643.47266 583.00572,644.52651 583.00572,646.13675 C 583.00572,646.13675 583.00572,652.09128 583.00572,652.09128 C 583.00572,653.61753 582.94241,654.67626 582.81582,655.26744 C 582.6952,655.84817 582.48119,656.37431 582.17368,656.84588 C 581.8662,657.31047 581.48633,657.73283 581.03416,658.11291 C 580.58196,658.48596 579.90065,658.93536 578.99024,659.46098 C 578.99024,659.46098 574.18794,662.2336 574.18794,662.2336 C 574.18794,662.2336 574.18794,645.23119 574.18794,645.23119 M 577.99541,645.94192 C 577.99541,645.94192 577.99541,657.12637 577.99541,657.12637 C 578.54407,656.8096 578.88172,656.4887 579.00834,656.16346 C 579.13493,655.83135 579.19825,655.09819 579.19825,653.96397 C 579.19825,653.96397 579.19825,647.35833 579.19825,647.35833 C 579.19825,646.58819 579.17719,646.10677 579.13493,645.91412 C 579.09268,645.7215 578.99625,645.61963 578.84552,645.60865 C 578.6948,645.59067 578.41142,645.70177 577.99541,645.94192 M 584.42561,639.32046 C 584.42561,639.32046 590.77445,635.65496 590.77445,635.65496 C 590.77445,635.65496 590.77445,639.05755 590.77445,639.05755 C 590.77445,639.05755 588.23311,640.52479 588.23311,640.52479 C 588.23311,640.52479 588.23311,643.74882 588.23311,643.74882 C 588.23311,643.74882 590.61163,642.37558 590.61163,642.37558 C 590.61163,642.37558 590.61163,645.61012 590.61163,645.61012 C 590.61163,645.61012 588.23311,646.98336 588.23311,646.98336 C 588.23311,646.98336 588.23311,650.72202 588.23311,650.72202 C 588.23311,650.72202 591.02767,649.10858 591.02767,649.10858 C 591.02767,649.10858 591.02767,652.51117 591.02767,652.51117 C 591.02767,652.51117 584.42561,656.32287 584.42561,656.32287 C 584.42561,656.32287 584.42561,639.32046 584.42561,639.32046 M 604.04182,627.99504 C 604.04182,627.99504 604.04182,639.35798 604.04182,639.35798 C 604.04182,640.6462 604.00559,641.57378 603.93335,642.14058 C 603.86102,642.70044 603.64695,643.3596 603.29124,644.11808 C 602.9355,644.86955 602.46524,645.55764 601.88041,646.18233 C 601.30159,646.79657 600.61725,647.3317 599.82744,647.7877 C 598.95317,648.29246 598.18143,648.56998 597.51221,648.62032 C 596.84293,648.67066 596.34252,648.522 596.01091,648.17435 C 595.67931,647.82673 595.48334,647.37274 595.42304,646.81244 C 595.36275,646.24517 595.33264,645.00235 595.33264,643.08399 C 595.33264,643.08399 595.33264,633.02329 595.33264,633.02329 C 595.33264,633.02329 599.14012,630.82504 599.14012,630.82504 C 599.14012,630.82504 599.14012,643.57423 599.14012,643.57423 C 599.14012,644.31635 599.17321,644.77334 599.23957,644.94504 C 599.3119,645.10632 599.45358,645.12606 599.66462,645.00418 C 599.90578,644.86498 600.05954,644.66419 600.12584,644.40186 C 600.1982,644.12902 600.23431,643.5691 600.23431,642.72195 C 600.23431,642.72195 600.23431,630.19331 600.23431,630.19331 C 600.23431,630.19331 604.04182,627.99504 604.04182,627.99504 M 605.51596,627.14394 C 605.51596,627.14394 609.35059,624.93002 609.35059,624.93002 C 610.38761,624.3313 611.18349,623.9663 611.73818,623.83508 C 612.29888,623.70042 612.71793,623.7315 612.99527,623.92843 C 613.27862,624.12191 613.46856,624.44632 613.56505,624.9017 C 613.66748,625.34668 613.71879,626.10116 613.71879,627.16533 C 613.71879,627.16533 613.71879,628.64609 613.71879,628.64609 C 613.71879,629.73131 613.62236,630.5781 613.42938,631.18659 C 613.23646,631.79506 612.88072,632.38204 612.36222,632.94741 C 611.84972,633.50935 611.17745,634.03051 610.34541,634.51089 C 610.34541,634.51089 609.32347,635.10091 609.32347,635.10091 C 609.32347,635.10091 609.32347,641.94808 609.32347,641.94808 C 609.32347,641.94808 605.51596,644.14635 605.51596,644.14635 C 605.51596,644.14635 605.51596,627.14394 605.51596,627.14394 M 609.32347,627.85466 C 609.32347,627.85466 609.32347,632.18142 609.32347,632.18142 C 609.43194,632.1255 609.52544,632.07556 609.6038,632.03031 C 609.95351,631.82841 610.19466,631.59118 610.32732,631.31855 C 610.466,631.03544 610.53535,630.57885 610.53535,629.94872 C 610.53535,629.94872 610.53535,628.55198 610.53535,628.55198 C 610.53535,627.97088 610.45696,627.63808 610.3002,627.55356 C 610.14342,627.46906 609.81784,627.5695 609.32347,627.85493"
       style="font-size:16px;font-style:normal;font-weight:normal;fill:#000000;fill-opacity:1;font-family:IMPACT;-inkscape-font-specification:IMPACT"
       id="path3783" />
    <path
       d="M 443.0127,583.99026 C 443.0127,583.99026 448.62829,580.7481 448.62829,580.7481 C 452.37198,578.58671 454.9034,577.29301 456.2225,576.86695 C 457.55415,576.43376 458.63456,576.67081 459.4637,577.57816 C 460.30541,578.46377 460.72627,580.41663 460.72627,583.43685 C 460.72627,586.19448 460.43103,588.21792 459.84061,589.50715 C 459.25013,590.79648 458.08805,592.03645 456.35443,593.22699 C 457.92474,592.77271 458.98002,592.76896 459.52024,593.21575 C 460.06043,593.66258 460.39334,594.17072 460.51898,594.74015 C 460.65716,595.28779 460.72627,596.99143 460.72627,599.85117 C 460.72627,599.85117 460.72627,609.1964 460.72627,609.1964 C 460.72627,609.1964 453.35819,613.45036 453.35819,613.45036 C 453.35819,613.45036 453.35819,601.67581 453.35819,601.67581 C 453.35819,599.77908 453.22626,598.68068 452.96246,598.38068 C 452.7112,598.07345 452.03908,598.23534 450.94613,598.86635 C 450.94613,598.86635 450.94613,614.84296 450.94613,614.84296 C 450.94613,614.84296 443.0127,619.42333 443.0127,619.42333 C 443.0127,619.42333 443.0127,583.99026 443.0127,583.99026 M 450.94613,585.47226 C 450.94613,585.47226 450.94613,593.35114 450.94613,593.35114 C 451.83807,592.83621 452.45993,592.33855 452.81171,591.85822 C 453.176,591.35609 453.35819,590.32441 453.35819,588.7632 C 453.35819,588.7632 453.35819,586.81536 453.35819,586.81536 C 453.35819,585.69194 453.18228,585.05668 452.83053,584.90957 C 452.49134,584.75524 451.8632,584.94283 450.94613,585.47226 M 493.66597,554.74558 C 493.66597,554.74558 490.14213,592.21314 490.14213,592.21314 C 490.14213,592.21314 480.23006,597.93587 480.23006,597.93587 C 479.3255,593.01587 478.52776,587.29007 477.83683,580.75849 C 477.52274,583.90172 476.78783,590.51239 475.63206,600.59053 C 475.63206,600.59053 465.77654,606.28062 465.77654,606.28062 C 465.77654,606.28062 462.23382,572.89294 462.23382,572.89294 C 462.23382,572.89294 469.94112,568.44313 469.94112,568.44313 C 469.94112,568.44313 470.75142,580.34075 470.75142,580.34075 C 470.75142,580.34075 471.58056,591.78982 471.58056,591.78982 C 471.86949,585.45123 472.59812,576.93283 473.76648,566.23455 C 473.76648,566.23455 482.02025,561.46924 482.02025,561.46924 C 482.13331,562.43994 482.42223,566.16877 482.8871,572.65576 C 482.8871,572.65576 483.75391,585.61507 483.75391,585.61507 C 484.19361,576.79658 484.92852,567.99006 485.9587,559.19537 C 485.9587,559.19537 493.66597,554.74558 493.66597,554.74558 M 519.72755,539.69892 C 519.72755,539.69892 519.72755,575.13199 519.72755,575.13199 C 519.72755,575.13199 512.79288,579.13572 512.79288,579.13572 C 512.79288,579.13572 512.79288,555.21457 512.79288,555.21457 C 512.79288,555.21457 510.02277,580.73505 510.02277,580.73505 C 510.02277,580.73505 505.10443,583.57465 505.10443,583.57465 C 505.10443,583.57465 502.18357,561.88702 502.18357,561.88702 C 502.18357,561.88702 502.18357,585.26101 502.18357,585.26101 C 502.18357,585.26101 495.24891,589.26474 495.24891,589.26474 C 495.24891,589.26474 495.24891,553.83167 495.24891,553.83167 C 495.24891,553.83167 505.519,547.90223 505.519,547.90223 C 505.8205,549.85841 506.14086,552.18303 506.48005,554.87609 C 506.48005,554.87609 507.57302,563.26199 507.57302,563.26199 C 507.57302,563.26199 509.38206,545.67189 509.38206,545.67189 C 509.38206,545.67189 519.72755,539.69892 519.72755,539.69892"
       style="font-size:40px;font-style:normal;font-variant:normal;font-weight:bold;font-stretch:normal;fill:#000000;fill-opacity:1;font-family:Impact;-inkscape-font-specification:Impact Bold"
       id="path2536" />
    <path
       style="fill:none;fill-rule:evenodd;stroke:#000000;stroke-width:1px;stroke-linecap:butt;stroke-linejoin:miter;stroke-opacity:1"
       d="M 337.54533,715.74801 C 337.54533,715.74801 337.54533,680.31494 337.54533,680.31494 C 337.54533,680.31494 414.26018,724.60628 414.26018,724.60628 L 414.26018,760.03935 L 337.54533,715.74801 z"
       id="path2542" />
    <path
       id="path2750"
       style="font-size:40px;font-style:normal;font-variant:normal;font-weight:bold;font-stretch:normal;fill:#000000;fill-opacity:1;font-family:Impact;-inkscape-font-specification:Impact Bold"
       d="M 346.681,614.72328 C 346.681,614.72328 352.29659,617.96544 352.29659,617.96544 C 356.04028,620.1269 358.5717,621.75623 359.8908,622.85334 C 361.22245,623.9578 362.30286,625.4424 363.132,627.30716 C 363.97371,629.16469 364.39457,631.60352 364.39457,634.62374 C 364.39457,637.38137 364.09933,639.0639 363.50891,639.67137 C 362.91843,640.27887 361.75635,640.17699 360.02273,639.36571 C 361.59304,640.72467 362.64832,641.93946 363.18854,643.01004 C 363.72873,644.08063 364.06164,644.97317 364.18728,645.68769 C 364.32546,646.39488 364.39457,648.17832 364.39457,651.03806 C 364.39457,651.03806 364.39457,660.38328 364.39457,660.38328 C 364.39457,660.38328 357.02649,656.12932 357.02649,656.12932 C 357.02649,656.12932 357.02649,644.35477 357.02649,644.35477 C 357.02649,642.45804 356.89456,641.2073 356.63076,640.60269 C 356.3795,640.00532 355.70738,639.39113 354.61443,638.76011 C 354.61443,638.76011 354.61443,654.73672 354.61443,654.73672 C 354.61443,654.73672 346.681,650.15635 346.681,650.15635 C 346.681,650.15635 346.681,614.72328 346.681,614.72328 M 354.61443,625.36602 C 354.61443,625.36602 354.61443,633.2449 354.61443,633.2449 C 355.50637,633.75989 356.12823,633.98029 356.48001,633.90617 C 356.8443,633.82467 357.02649,633.00336 357.02649,631.44216 C 357.02649,631.44216 357.02649,629.49432 357.02649,629.49432 C 357.02649,628.3709 356.85058,627.53252 356.49883,626.97924 C 356.15964,626.43326 355.5315,625.89553 354.61443,625.36602 M 397.33427,643.96796 C 397.33427,643.96796 393.81043,677.36654 393.81043,677.36654 C 393.81043,677.36654 383.89836,671.6438 383.89836,671.6438 C 382.9938,665.6793 382.19606,659.03235 381.50513,651.70295 C 381.19104,654.4835 380.45613,660.24557 379.30036,668.98915 C 379.30036,668.98915 369.44484,663.29906 369.44484,663.29906 C 369.44484,663.29906 365.90212,625.8206 365.90212,625.8206 C 365.90212,625.8206 373.60942,630.27041 373.60942,630.27041 C 373.60942,630.27041 374.41972,643.10369 374.41972,643.10369 C 374.41972,643.10369 375.24886,655.51017 375.24886,655.51017 C 375.53779,649.5052 376.26642,641.82815 377.43478,632.47898 C 377.43478,632.47898 385.68856,637.2443 385.68856,637.2443 C 385.80161,638.34555 386.09053,642.408 386.5554,649.43177 C 386.5554,649.43177 387.42221,663.39198 387.42221,663.39198 C 387.86191,655.08122 388.59682,647.1233 389.627,639.51817 C 389.627,639.51817 397.33427,643.96796 397.33427,643.96796 M 423.39585,659.01462 C 423.39585,659.01462 423.39585,694.44769 423.39585,694.44769 C 423.39585,694.44769 416.46119,690.44396 416.46119,690.44396 C 416.46119,690.44396 416.46119,666.52281 416.46119,666.52281 C 416.46119,666.52281 413.69107,688.84463 413.69107,688.84463 C 413.69107,688.84463 408.77273,686.00503 408.77273,686.00503 C 408.77273,686.00503 405.85187,660.94467 405.85187,660.94467 C 405.85187,660.94467 405.85187,684.31867 405.85187,684.31867 C 405.85187,684.31867 398.91721,680.31494 398.91721,680.31494 C 398.91721,680.31494 398.91721,644.88187 398.91721,644.88187 C 398.91721,644.88187 409.18731,650.81131 409.18731,650.81131 C 409.4888,653.11563 409.80917,655.81018 410.14835,658.89489 C 410.14835,658.89489 411.24132,668.54285 411.24132,668.54285 C 411.24132,668.54285 413.05036,653.04165 413.05036,653.04165 C 413.05036,653.04165 423.39585,659.01462 423.39585,659.01462" />
    <path
       style="fill:none;fill-rule:evenodd;stroke:#000000;stroke-width:1px;stroke-linecap:butt;stroke-linejoin:miter;stroke-opacity:1"
       d="M 444.94612,777.75588 C 444.94612,777.75588 444.94612,760.03935 444.94612,760.03935 L 537.00394,813.18895 C 537.00394,813.18895 537.00394,830.90549 537.00394,830.90549 L 444.94612,777.75588 z"
       id="path2778" />
    <path
       id="path2780"
       style="font-size:16px;font-style:normal;font-weight:normal;fill:#000000;fill-opacity:1;font-family:IMPACT;-inkscape-font-specification:IMPACT"
       d="M 457.14183,708.78508 C 457.14183,708.78508 457.14183,712.18766 457.14183,712.18766 C 457.14183,712.18766 454.88086,710.88229 454.88086,710.88229 C 454.88086,710.88229 454.88086,724.48208 454.88086,724.48208 C 454.88086,724.48208 451.07339,722.28383 451.07339,722.28383 C 451.07339,722.28383 451.07339,708.68404 451.07339,708.68404 C 451.07339,708.68404 448.82143,707.38388 448.82143,707.38388 C 448.82143,707.38388 448.82143,703.98129 448.82143,703.98129 C 448.82143,703.98129 457.14183,708.78508 457.14183,708.78508 M 466.76451,714.34074 C 466.76451,714.34074 466.76451,731.34311 466.76451,731.34311 C 466.76451,731.34311 462.95704,729.14486 462.95704,729.14486 C 462.95704,729.14486 462.95704,722.00363 462.95704,722.00363 C 462.95704,722.00363 461.81752,721.34573 461.81752,721.34573 C 461.81752,721.34573 461.81752,728.48696 461.81752,728.48696 C 461.81752,728.48696 458.01004,726.28871 458.01004,726.28871 C 458.01004,726.28871 458.01004,709.28634 458.01004,709.28634 C 458.01004,709.28634 461.81752,711.48459 461.81752,711.48459 C 461.81752,711.48459 461.81752,717.56508 461.81752,717.56508 C 461.81752,717.56508 462.95704,718.22299 462.95704,718.22299 C 462.95704,718.22299 462.95704,712.14249 462.95704,712.14249 C 462.95704,712.14249 466.76451,714.34074 466.76451,714.34074 M 472.09138,717.4162 C 472.09138,717.4162 472.09138,734.41858 472.09138,734.41858 C 472.09138,734.41858 468.2839,732.22033 468.2839,732.22033 C 468.2839,732.22033 468.2839,715.21795 468.2839,715.21795 C 468.2839,715.21795 472.09138,717.4162 472.09138,717.4162 M 481.66885,728.09161 C 481.66885,728.09161 478.13271,726.05002 478.13271,726.05002 C 478.13271,726.05002 478.13271,724.78982 478.13271,724.78982 C 478.13268,724.20169 478.08744,723.80101 477.99704,723.58778 C 477.90664,723.37457 477.75586,723.20703 477.54484,723.08517 C 477.31572,722.95292 477.14087,722.96041 477.02031,723.10789 C 476.90569,723.25876 476.84847,723.55479 476.84847,723.99586 C 476.84847,724.56295 476.9148,725.0283 477.04743,725.39194 C 477.17405,725.75208 477.53278,726.30576 478.12366,727.05296 C 479.81788,729.20035 480.88504,730.77561 481.3252,731.77889 C 481.76534,732.78212 481.98538,734.11686 481.98541,735.78316 C 481.98538,736.99434 481.8618,737.81565 481.61461,738.24703 C 481.37343,738.68188 480.90314,738.89346 480.20375,738.88174 C 479.50437,738.86301 478.69039,738.5856 477.76189,738.04953 C 476.74296,737.46125 475.87174,736.73419 475.14823,735.8684 C 474.43074,735.00608 473.96045,734.16396 473.73736,733.34205 C 473.51428,732.52014 473.40274,731.47206 473.40274,730.19785 C 473.40274,730.19785 473.40274,729.08465 473.40274,729.08465 C 473.40274,729.08465 476.9389,731.12625 476.9389,731.12625 C 476.9389,731.12625 476.9389,733.19512 476.9389,733.19512 C 476.9389,733.83222 476.98719,734.26968 477.08362,734.50738 C 477.18606,734.74855 477.36396,734.94229 477.6172,735.08847 C 477.87042,735.2347 478.05734,735.22714 478.17793,735.06567 C 478.30452,734.90773 478.36783,734.60121 478.36783,734.14613 C 478.36783,733.14497 478.25026,732.42247 478.01514,731.97868 C 477.77396,731.53139 477.18005,730.67387 476.23348,729.40627 C 475.28689,728.13162 474.65983,727.24103 474.35235,726.73441 C 474.04484,726.22784 473.78861,725.62482 473.58362,724.92537 C 473.38464,724.22939 473.28516,723.42984 473.28519,722.5267 C 473.28516,721.22445 473.42687,720.35411 473.71025,719.9156 C 473.99963,719.4806 474.46389,719.27955 475.10301,719.31248 C 475.7421,719.33842 476.51385,719.61243 477.41825,720.13459 C 478.40701,720.70546 479.2481,721.37659 479.94148,722.14797 C 480.64087,722.92285 481.10209,723.65822 481.3252,724.35409 C 481.55429,725.04648 481.66885,726.06828 481.66885,727.41951 C 481.66885,727.41951 481.66885,728.09161 481.66885,728.09161 M 494.5112,735.50614 C 494.5112,735.50614 490.97503,733.46454 490.97503,733.46454 C 490.97503,733.46454 490.97503,732.20433 490.97503,732.20433 C 490.97503,731.61623 490.92976,731.21553 490.83939,731.00231 C 490.74896,730.78909 490.59821,730.62156 490.38716,730.49968 C 490.15807,730.36745 489.98322,730.37494 489.86263,730.5224 C 489.74804,730.67329 489.69079,730.9693 489.69079,731.41037 C 489.69079,731.97746 489.75712,732.44282 489.88977,732.80647 C 490.01637,733.16659 490.37512,733.72029 490.96598,734.46747 C 492.6602,736.61487 493.72739,738.19014 494.16752,739.1934 C 494.60766,740.19663 494.82772,741.53139 494.82772,743.19767 C 494.82772,744.40888 494.70412,745.23016 494.45693,745.66155 C 494.21575,746.0964 493.74548,746.30799 493.0461,746.29627 C 492.34668,746.27753 491.53274,746.00013 490.60424,745.46406 C 489.58528,744.87576 488.71406,744.14871 487.99054,743.28291 C 487.27306,742.4206 486.80279,741.57849 486.57971,740.75658 C 486.35663,739.93467 486.24508,738.8866 486.24508,737.61238 C 486.24508,737.61238 486.24508,736.49918 486.24508,736.49918 C 486.24508,736.49918 489.78125,738.54079 489.78125,738.54079 C 489.78125,738.54079 489.78125,740.60965 489.78125,740.60965 C 489.78122,741.24674 489.82951,741.6842 489.92594,741.9219 C 490.0284,742.16308 490.2063,742.35682 490.45952,742.50299 C 490.71277,742.64923 490.89965,742.64165 491.02025,742.48018 C 491.14687,742.32226 491.21018,742.01574 491.21018,741.56066 C 491.21018,740.5595 491.09261,739.837 490.85746,739.3932 C 490.61628,738.9459 490.0224,738.08841 489.0758,736.82079 C 488.1292,735.54614 487.50218,734.65556 487.19467,734.14892 C 486.88719,733.64237 486.63096,733.03935 486.42594,732.33989 C 486.22699,731.64392 486.12751,730.84437 486.12751,729.94122 C 486.12751,728.63898 486.26918,727.76862 486.55256,727.33012 C 486.84198,726.89513 487.30621,726.69406 487.94533,726.72699 C 488.58442,726.75293 489.35616,727.02695 490.26057,727.54911 C 491.24936,728.11999 492.09042,728.7911 492.7838,729.56248 C 493.48319,730.33736 493.94444,731.07275 494.16752,731.76861 C 494.39664,732.46101 494.51117,733.48279 494.5112,734.83404 C 494.5112,734.83404 494.5112,735.50614 494.5112,735.50614 M 499.83806,733.43576 C 499.83806,733.43576 499.83806,750.43813 499.83806,750.43813 C 499.83806,750.43813 496.03056,748.23987 496.03056,748.23987 C 496.03056,748.23987 496.03056,731.23749 496.03056,731.23749 C 496.03056,731.23749 499.83806,733.43576 499.83806,733.43576 M 501.34838,734.30773 C 501.34838,734.30773 504.19719,735.9525 504.19719,735.9525 C 506.03613,737.01421 507.27814,737.82925 507.92329,738.3978 C 508.57445,738.96978 509.06884,739.57728 509.40649,740.22029 C 509.74413,740.8633 509.95515,741.48575 510.03957,742.08754 C 510.12397,742.68238 510.16617,743.78495 510.16617,745.3952 C 510.16617,745.3952 510.16617,751.34971 510.16617,751.34971 C 510.16617,752.87596 510.10285,753.86158 509.97626,754.30658 C 509.85564,754.74803 509.64163,755.02705 509.33413,755.14355 C 509.02665,755.25309 508.64678,755.23681 508.19461,755.09477 C 507.7424,754.94567 507.06109,754.60835 506.15068,754.08272 C 506.15068,754.08272 501.34838,751.31011 501.34838,751.31011 C 501.34838,751.31011 501.34838,734.30773 501.34838,734.30773 M 505.15585,739.41496 C 505.15585,739.41496 505.15585,750.59938 505.15585,750.59938 C 505.70452,750.91615 506.04216,750.98514 506.16878,750.8061 C 506.29538,750.62018 506.35869,749.96012 506.35869,748.8259 C 506.35869,748.8259 506.35869,742.22027 506.35869,742.22027 C 506.35869,741.45014 506.33763,740.94441 506.29538,740.70296 C 506.25312,740.46155 506.15669,740.24833 506.00596,740.06331 C 505.85524,739.87129 505.57186,739.65517 505.15585,739.41496 M 511.58605,740.21846 C 511.58605,740.21846 517.93489,743.88396 517.93489,743.88396 C 517.93489,743.88396 517.93489,747.28655 517.93489,747.28655 C 517.93489,747.28655 515.39356,745.81931 515.39356,745.81931 C 515.39356,745.81931 515.39356,749.04333 515.39356,749.04333 C 515.39356,749.04333 517.77208,750.41657 517.77208,750.41657 C 517.77208,750.41657 517.77208,753.65111 517.77208,753.65111 C 517.77208,753.65111 515.39356,752.27787 515.39356,752.27787 C 515.39356,752.27787 515.39356,756.01652 515.39356,756.01652 C 515.39356,756.01652 518.18811,757.62995 518.18811,757.62995 C 518.18811,757.62995 518.18811,761.03254 518.18811,761.03254 C 518.18811,761.03254 511.58605,757.22083 511.58605,757.22083 C 511.58605,757.22083 511.58605,740.21846 511.58605,740.21846 M 531.20227,751.54389 C 531.20227,751.54389 531.20227,762.9068 531.20227,762.9068 C 531.20227,764.19503 531.16605,765.08077 531.09381,765.56416 C 531.02147,766.04049 530.80741,766.45247 530.4517,766.80022 C 530.09596,767.14091 529.62569,767.28598 529.04086,767.23537 C 528.46204,767.18124 527.77771,766.92617 526.98789,766.47017 C 526.11363,765.96541 525.34188,765.3518 524.67266,764.62939 C 524.00338,763.90691 523.50297,763.18044 523.17136,762.44988 C 522.83975,761.71935 522.64379,761.03908 522.58349,760.40916 C 522.5232,759.77227 522.49309,758.49468 522.49309,756.57632 C 522.49309,756.57632 522.49309,746.51564 522.49309,746.51564 C 522.49309,746.51564 526.30057,748.71389 526.30057,748.71389 C 526.30057,748.71389 526.30057,761.46306 526.30057,761.46306 C 526.30057,762.20518 526.33366,762.70038 526.40002,762.9487 C 526.47235,763.1935 526.61403,763.37683 526.82508,763.49865 C 527.06623,763.63791 527.22,763.61468 527.2863,763.4289 C 527.35866,763.23962 527.39476,762.7214 527.39476,761.87424 C 527.39476,761.87424 527.39476,749.34562 527.39476,749.34562 C 527.39476,749.34562 531.20227,751.54389 531.20227,751.54389 M 532.67642,752.39499 C 532.67642,752.39499 536.51105,754.60891 536.51105,754.60891 C 537.54807,755.20764 538.34395,755.76164 538.89864,756.27092 C 539.45934,756.7837 539.87839,757.29866 540.15574,757.81584 C 540.43909,758.33651 540.62902,758.88023 540.72551,759.44703 C 540.82795,760.01028 540.87925,760.82401 540.87925,761.88818 C 540.87925,761.88818 540.87925,763.36894 540.87925,763.36894 C 540.87925,764.45415 540.78282,765.18959 540.58984,765.57525 C 540.39692,765.96095 540.04118,766.13716 539.52268,766.10382 C 539.01019,766.07398 538.33792,765.81887 537.50588,765.33849 C 537.50588,765.33849 536.48393,764.74847 536.48393,764.74847 C 536.48393,764.74847 536.48393,771.59563 536.48393,771.59563 C 536.48393,771.59563 532.67642,769.39737 532.67642,769.39737 C 532.67642,769.39737 532.67642,752.39499 532.67642,752.39499 M 536.48393,757.50223 C 536.48393,757.50223 536.48393,761.82899 536.48393,761.82899 C 536.5924,761.89831 536.6859,761.95633 536.76426,762.00158 C 537.11397,762.20348 537.35512,762.24471 537.48778,762.12526 C 537.62647,762.00229 537.69581,761.62578 537.69581,760.99564 C 537.69581,760.99564 537.69581,759.59891 537.69581,759.59891 C 537.69581,759.01781 537.61742,758.59449 537.46066,758.32896 C 537.30388,758.06342 536.9783,757.78792 536.48393,757.5025" />
    <path
       id="path2842"
       d="M 444.94612,671.45667 C 444.94612,671.45667 444.94612,636.0236 444.94612,636.0236 L 521.66097,591.73226 L 521.66097,627.16533 L 444.94612,671.45667 z"
       style="fill:none;fill-rule:evenodd;stroke:#000000;stroke-width:1px;stroke-linecap:butt;stroke-linejoin:miter;stroke-opacity:1" />
    <path
       id="path2844"
       style="font-size:40px;font-style:normal;font-variant:normal;font-weight:bold;font-stretch:normal;fill:#000000;fill-opacity:1;font-family:Impact;-inkscape-font-specification:Impact Bold"
       d="M 336.27892,760.03935 L 338.12029,760.03935 C 339.34786,760.03936 340.17792,760.08674 340.61046,760.18147 C 341.04711,760.27623 341.40138,760.51927 341.67326,760.9106 C 341.94926,761.29784 342.08726,761.9178 342.08726,762.77051 C 342.08726,763.54908 341.99045,764.07224 341.79685,764.33999 C 341.60323,764.60776 341.22218,764.76842 340.65372,764.82196 C 341.16863,764.94967 341.51466,765.12063 341.6918,765.33483 C 341.86893,765.54904 341.97809,765.74677 342.01929,765.92802 C 342.0646,766.10516 342.08726,766.59742 342.08726,767.40482 L 342.08726,770.04329 L 339.67124,770.04329 L 339.67124,766.71894 C 339.67124,766.18343 339.62798,765.85181 339.54148,765.72411 C 339.45909,765.59641 339.2387,765.53256 338.88032,765.53256 L 338.88032,770.04329 L 336.27892,770.04329 L 336.27892,760.03935 M 338.88032,761.75096 L 338.88032,763.97543 C 339.17279,763.97544 339.3767,763.9363 339.49205,763.85803 C 339.6115,763.77564 339.67124,763.51406 339.67124,763.07328 L 339.67124,762.52334 C 339.67124,762.20616 339.61356,761.99813 339.49822,761.89926 C 339.387,761.8004 339.18103,761.75097 338.88032,761.75096 M 352.8883,760.03935 L 351.73282,770.04329 L 348.48262,770.04329 C 348.18601,768.50676 347.92443,766.76014 347.69787,764.80343 C 347.59488,765.63967 347.3539,767.38629 346.97492,770.04329 L 343.74326,770.04329 L 342.58159,760.03935 L 345.10884,760.03935 L 345.37454,763.53053 L 345.64642,766.89814 C 345.74116,765.15564 345.98008,762.86938 346.36319,760.03935 L 349.06963,760.03935 C 349.1067,760.33184 349.20144,761.43171 349.35387,763.33898 L 349.6381,767.13912 C 349.78228,764.72104 350.02326,762.35446 350.36106,760.03935 L 352.8883,760.03935 M 361.43398,760.03935 L 361.43398,770.04329 L 359.16008,770.04329 L 359.16008,763.28955 L 358.25175,770.04329 L 356.63901,770.04329 L 355.68125,763.44403 L 355.68125,770.04329 L 353.40735,770.04329 L 353.40735,760.03935 L 356.77495,760.03935 C 356.87381,760.64079 356.97886,761.34933 357.09008,762.16496 L 357.44847,764.71074 L 358.04166,760.03935 L 361.43398,760.03935" />
    <path
       id="path2918"
       style="font-size:16px;font-style:normal;font-weight:normal;fill:#000000;fill-opacity:1;font-family:IMPACT;-inkscape-font-specification:IMPACT"
       d="M 332.6097,774.79958 L 332.6097,775.81965 L 331.82261,775.81965 L 331.82261,779.89677 L 330.49715,779.89677 L 330.49715,775.81965 L 329.7132,775.81965 L 329.7132,774.79958 L 332.6097,774.79958 M 335.95955,774.79958 L 335.95955,779.89677 L 334.63409,779.89677 L 334.63409,777.75588 L 334.2374,777.75588 L 334.2374,779.89677 L 332.91194,779.89677 L 332.91194,774.79958 L 334.2374,774.79958 L 334.2374,776.62247 L 334.63409,776.62247 L 334.63409,774.79958 L 335.95955,774.79958 M 337.81394,774.79958 L 337.81394,779.89677 L 336.48848,779.89677 L 336.48848,774.79958 L 337.81394,774.79958 M 341.14805,776.34227 L 339.91705,776.34227 L 339.91705,775.96447 C 339.91704,775.78816 339.90129,775.67587 339.86982,775.62759 C 339.83835,775.57932 339.78586,775.55519 339.7124,775.55518 C 339.63264,775.55519 339.57177,775.5877 339.5298,775.65278 C 339.4899,775.71785 339.46998,775.8165 339.46998,775.94873 C 339.46998,776.11874 339.49307,776.24677 339.53924,776.33283 C 339.58332,776.41888 339.7082,776.52278 339.9139,776.64451 C 340.50369,776.99504 340.87519,777.28258 341.02842,777.50717 C 341.18164,777.73175 341.25824,778.09381 341.25825,778.59335 C 341.25824,778.95646 341.21522,779.22407 341.12917,779.39618 C 341.04521,779.56829 340.88149,779.71312 340.63802,779.83066 C 340.39455,779.9461 340.11119,780.00382 339.78796,780.00382 C 339.43325,780.00382 339.12996,779.93665 338.87809,779.80232 C 338.62832,779.66799 338.4646,779.49693 338.38694,779.28914 C 338.30928,779.08135 338.27045,778.78645 338.27045,778.40445 L 338.27045,778.07072 L 339.50146,778.07072 L 339.50146,778.69095 C 339.50146,778.88195 339.51827,779.00474 339.55184,779.05931 C 339.5875,779.11388 339.64943,779.14117 339.73759,779.14116 C 339.82574,779.14117 339.89081,779.10655 339.93279,779.03727 C 339.97686,778.96801 339.9989,778.86516 339.9989,778.72873 C 339.9989,778.42859 339.95797,778.23234 339.87612,778.13999 C 339.79216,778.04764 339.58541,777.89336 339.25589,777.67718 C 338.92636,777.45889 338.70807,777.30043 338.60103,777.20177 C 338.49398,777.10313 338.40478,776.9667 338.33342,776.79249 C 338.26415,776.61828 338.22952,776.3958 338.22953,776.12504 C 338.22952,775.73464 338.27885,775.44919 338.3775,775.26868 C 338.47824,775.08818 338.63986,774.94755 338.86235,774.8468 C 339.08483,774.74396 339.35349,774.69253 339.66833,774.69253 C 340.01254,774.69253 340.30534,774.74815 340.54672,774.85939 C 340.79019,774.97064 340.95075,775.11127 341.02842,775.28127 C 341.10817,775.44919 341.14805,775.73569 341.14805,776.14078 L 341.14805,776.34227 M 345.61873,776.34227 L 344.38772,776.34227 L 344.38772,775.96447 C 344.38772,775.78816 344.37196,775.67587 344.3405,775.62759 C 344.30902,775.57932 344.25654,775.55519 344.18307,775.55518 C 344.10332,775.55519 344.04245,775.5877 344.00047,775.65278 C 343.96058,775.71785 343.94065,775.8165 343.94065,775.94873 C 343.94065,776.11874 343.96374,776.24677 344.00992,776.33283 C 344.05399,776.41888 344.17888,776.52278 344.38457,776.64451 C 344.97436,776.99504 345.34587,777.28258 345.49909,777.50717 C 345.65231,777.73175 345.72892,778.09381 345.72892,778.59335 C 345.72892,778.95646 345.68589,779.22407 345.59984,779.39618 C 345.51588,779.56829 345.35217,779.71312 345.1087,779.83066 C 344.86522,779.9461 344.58187,780.00382 344.25864,780.00382 C 343.90392,780.00382 343.60063,779.93665 343.34876,779.80232 C 343.09899,779.66799 342.93528,779.49693 342.85762,779.28914 C 342.77996,779.08135 342.74113,778.78645 342.74113,778.40445 L 342.74113,778.07072 L 343.97214,778.07072 L 343.97214,778.69095 C 343.97213,778.88195 343.98894,779.00474 344.02251,779.05931 C 344.05818,779.11388 344.12011,779.14117 344.20826,779.14116 C 344.29642,779.14117 344.36148,779.10655 344.40346,779.03727 C 344.44754,778.96801 344.46958,778.86516 344.46958,778.72873 C 344.46958,778.42859 344.42865,778.23234 344.34679,778.13999 C 344.26283,778.04764 344.05609,777.89336 343.72656,777.67718 C 343.39703,777.45889 343.17875,777.30043 343.0717,777.20177 C 342.96466,777.10313 342.87546,776.9667 342.80409,776.79249 C 342.73483,776.61828 342.7002,776.3958 342.7002,776.12504 C 342.7002,775.73464 342.74952,775.44919 342.84817,775.26868 C 342.94892,775.08818 343.11053,774.94755 343.33302,774.8468 C 343.5555,774.74396 343.82416,774.69253 344.139,774.69253 C 344.48322,774.69253 344.77601,774.74815 345.01739,774.85939 C 345.26086,774.97064 345.42143,775.11127 345.49909,775.28127 C 345.57885,775.44919 345.61872,775.73569 345.61873,776.14078 L 345.61873,776.34227 M 347.47312,774.79958 L 347.47312,779.89677 L 346.14765,779.89677 L 346.14765,774.79958 L 347.47312,774.79958 M 347.99889,774.79958 L 348.99062,774.79958 C 349.63079,774.79958 350.06316,774.82895 350.28775,774.88773 C 350.51443,774.9465 350.68654,775.04305 350.80408,775.17738 C 350.92162,775.31171 350.99508,775.46179 351.02447,775.62759 C 351.05385,775.79131 351.06854,776.11455 351.06854,776.59729 L 351.06854,778.38241 C 351.06854,778.83997 351.0465,779.14641 351.00243,779.30173 C 350.96044,779.45495 350.88594,779.57564 350.77889,779.66379 C 350.67185,779.74985 350.53961,779.81072 350.3822,779.8464 C 350.22478,779.87997 349.9876,779.89677 349.67067,779.89677 L 347.99889,779.89677 L 347.99889,774.79958 M 349.32435,775.67167 L 349.32435,779.02468 C 349.51535,779.02468 349.63289,778.98692 349.67697,778.91133 C 349.72104,778.83368 349.74308,778.62484 349.74308,778.28481 L 349.74308,776.30449 C 349.74308,776.07361 349.73575,775.92564 349.72104,775.86057 C 349.70633,775.79551 349.67276,775.74828 349.62029,775.7189 C 349.56782,775.68742 349.46917,775.67168 349.32435,775.67167 M 351.56283,774.79958 L 353.77299,774.79958 L 353.77299,775.81965 L 352.8883,775.81965 L 352.8883,776.78619 L 353.71631,776.78619 L 353.71631,777.75588 L 352.8883,777.75588 L 352.8883,778.8767 L 353.86114,778.8767 L 353.86114,779.89677 L 351.56283,779.89677 L 351.56283,774.79958 M 358.39163,774.79958 L 358.39163,778.2061 C 358.39163,778.5923 358.37902,778.86411 358.35387,779.02153 C 358.32869,779.17685 358.25417,779.33741 358.13034,779.50323 C 358.0065,779.66694 357.84279,779.79183 357.6392,779.87788 C 357.4377,779.96184 357.19947,780.00382 356.92452,780.00382 C 356.62017,780.00382 356.35151,779.95344 356.11854,779.8527 C 355.88555,779.75195 355.71135,779.62077 355.59591,779.45915 C 355.48047,779.29754 355.41225,779.12752 355.39126,778.94911 C 355.37027,778.76861 355.35979,778.39081 355.35979,777.8157 L 355.35979,774.79958 L 356.68525,774.79958 L 356.68525,778.62169 C 356.68525,778.84417 356.69677,778.9869 356.71987,779.04986 C 356.74505,779.11073 356.79437,779.14117 356.86784,779.14116 C 356.95179,779.14117 357.00532,779.10759 357.0284,779.04042 C 357.05359,778.97115 357.06616,778.80954 357.06616,778.55557 L 357.06616,774.79958 L 358.39163,774.79958 M 358.90481,774.79958 L 360.23972,774.79958 C 360.60073,774.79958 360.87779,774.82791 361.07089,774.88458 C 361.26608,774.94126 361.41196,775.02311 361.50851,775.13015 C 361.60715,775.2372 361.67327,775.36733 361.70686,775.52055 C 361.74252,775.67168 361.76038,775.90675 361.76038,776.22578 L 361.76038,776.6697 C 361.76038,776.99504 361.72681,777.23221 361.65963,777.38123 C 361.59247,777.53025 361.46863,777.64465 361.28813,777.7244 C 361.10972,777.80416 360.87569,777.84404 360.58604,777.84404 L 360.23028,777.84404 L 360.23028,779.89677 L 358.90481,779.89677 L 358.90481,774.79958 M 360.23028,775.67167 L 360.23028,776.9688 C 360.26804,776.97081 360.30059,776.97202 360.32787,776.97202 C 360.44961,776.97202 360.53356,776.94264 360.57974,776.88387 C 360.62802,776.823 360.65216,776.69812 360.65216,776.50921 L 360.65216,776.09048 C 360.65216,775.91627 360.62487,775.80293 360.5703,775.75046 C 360.51572,775.69799 360.40238,775.67175 360.23028,775.67175" />
    <path
       style="fill:none;fill-rule:evenodd;stroke:#000000;stroke-width:1px;stroke-linecap:butt;stroke-linejoin:miter;stroke-opacity:1"
       d="M 521.66097,733.46455 C 521.66097,733.46455 521.66097,715.74801 521.66097,715.74801 L 613.71879,662.59841 L 613.71879,680.31494 L 521.66097,733.46455 L 521.66097,733.46455 z"
       id="path2920" />
    <path
       id="path3777"
       d="M398.91721 991.86512604C398.91721 991.86512604 410.315920384 998.271256071 410.315920384 998.271256071C410.315920384 998.271256071 410.312230679 1023.50633992 410.312230679 1023.50633992C410.312230679 1023.50633992 418.691397867 1028.34570967 418.691397867 1028.34570967C418.691397867 1028.34570967 418.69508757 1002.99244803 418.69508757 1002.99244803C418.69508757 1002.99244803 429.60315 1009.17408385 429.60315 1009.17408385C429.60315 1009.17408385 414.058218384 954.804637378 414.058218384 954.804637378C414.058218384 954.804637378 398.91721 991.86512604 398.91721 991.86512604C398.91721 991.86512604 398.91721 991.86512604 398.91721 991.86512604"
       style="fill:#000000;fill-opacity:1;stroke:none;display:inline" />
    <path
       d="M 318.22299,833.20299 C 318.22299,833.20299 321.16972,834.90428 321.16972,834.90428 C 321.16972,834.90428 318.90875,836.20965 318.90875,836.20965 C 318.90875,836.20965 330.68651,843.00955 330.68651,843.00955 C 330.68651,843.00955 326.87903,845.20779 326.87903,845.20779 C 326.87903,845.20779 315.10127,838.4079 315.10127,838.4079 C 315.10127,838.4079 312.84932,839.70807 312.84932,839.70807 C 312.84932,839.70807 309.90259,838.00678 309.90259,838.00678 C 309.90259,838.00678 318.22299,833.20299 318.22299,833.20299 M 327.84567,827.64733 C 327.84567,827.64733 342.57016,836.14852 342.57016,836.14852 C 342.57016,836.14852 338.76268,838.34676 338.76268,838.34676 C 338.76268,838.34676 332.5782,834.77615 332.5782,834.77615 C 332.5782,834.77615 331.43868,835.43405 331.43868,835.43405 C 331.43868,835.43405 337.62316,839.00467 337.62316,839.00467 C 337.62316,839.00467 333.81569,841.20291 333.81569,841.20291 C 333.81569,841.20291 319.0912,832.70173 319.0912,832.70173 C 319.0912,832.70173 322.89868,830.50349 322.89868,830.50349 C 322.89868,830.50349 328.16454,833.54373 328.16454,833.54373 C 328.16454,833.54373 329.30406,832.88583 329.30406,832.88583 C 329.30406,832.88583 324.0382,829.84558 324.0382,829.84558 C 324.0382,829.84558 327.84567,827.64733 327.84567,827.64733 M 333.17254,824.57187 C 333.17254,824.57187 347.89703,833.07305 347.89703,833.07305 C 347.89703,833.07305 344.08955,835.2713 344.08955,835.2713 C 344.08955,835.2713 329.36506,826.77012 329.36506,826.77012 C 329.36506,826.77012 333.17254,824.57187 333.17254,824.57187 M 347.20645,821.61524 C 347.20645,821.61524 343.67031,823.65683 343.67031,823.65683 C 343.67031,823.65683 342.57894,823.02673 342.57894,823.02673 C 342.0696,822.73269 341.69998,822.57153 341.47011,822.5432 C 341.24027,822.51489 341.01978,822.5617 340.80874,822.68351 C 340.57965,822.81581 340.49871,822.97098 340.56615,823.14913 C 340.6395,823.32383 340.86725,823.5214 341.24923,823.74193 C 341.74035,824.02548 342.17652,824.20071 342.55775,824.26767 C 342.93295,824.33808 343.59182,824.30426 344.53436,824.16613 C 347.24116,823.7726 349.13895,823.63604 350.2279,823.75648 C 351.31679,823.87693 352.58273,824.35374 354.0258,825.18687 C 355.07471,825.79248 355.72419,826.31016 355.97418,826.73992 C 356.23018,827.16621 356.17826,827.67929 355.81842,828.27911 C 355.45251,828.87543 354.80528,829.44165 353.87678,829.97772 C 352.85785,830.566 351.79259,830.95697 350.68103,831.15065 C 349.5755,831.34085 348.61106,831.32708 347.78772,831.10933 C 346.96439,830.89157 346.00095,830.46413 344.89745,829.82702 C 344.89745,829.82702 343.93339,829.27042 343.93339,829.27042 C 343.93339,829.27042 347.46955,827.22881 347.46955,827.22881 C 347.46955,827.22881 349.26124,828.26324 349.26124,828.26324 C 349.81299,828.5818 350.21599,828.75871 350.47006,828.79405 C 350.73013,828.82592 350.98687,828.76872 351.24008,828.6225 C 351.49333,828.47632 351.58024,828.31066 351.5007,828.12549 C 351.42722,827.93689 351.19342,827.7288 350.79931,827.50126 C 349.93228,827.00068 349.24779,826.74125 348.74589,826.72298 C 348.23794,826.7082 347.19836,826.79378 345.6273,826.97973 C 344.05012,827.16219 342.96531,827.25993 342.37283,827.27291 C 341.78037,827.28594 341.13003,827.20633 340.42179,827.03413 C 339.71956,826.85846 338.9774,826.54484 338.19527,826.09324 C 337.06747,825.44215 336.38458,824.88425 336.14651,824.41959 C 335.91448,823.95147 335.9725,823.44888 336.32058,822.91185 C 336.66259,822.37136 337.28576,821.84001 338.19016,821.31786 C 339.17893,820.74699 340.18069,820.35415 341.19542,820.13936 C 342.21618,819.92111 343.08364,819.88937 343.79784,820.04409 C 344.51201,820.19188 345.45419,820.60357 346.62439,821.27919 C 346.62439,821.27919 347.20645,821.61524 347.20645,821.61524 M 360.04879,814.20071 C 360.04879,814.20071 356.51263,816.24231 356.51263,816.24231 C 356.51263,816.24231 355.42126,815.61221 355.42126,815.61221 C 354.91194,815.31816 354.54229,815.15702 354.31246,815.12867 C 354.08259,815.10037 353.86213,815.14716 353.65105,815.269 C 353.42199,815.40128 353.34105,815.55645 353.40846,815.73461 C 353.48185,815.9093 353.70957,816.10688 354.09155,816.32742 C 354.58267,816.61096 355.01884,816.7862 355.4001,816.85314 C 355.77527,816.92357 356.43417,816.88973 357.37667,816.75162 C 360.08348,816.35808 361.9813,816.2215 363.07022,816.34197 C 364.15911,816.46241 365.42507,816.93921 366.86812,817.77235 C 367.91705,818.37795 368.5665,818.89564 368.8165,819.3254 C 369.0725,819.75169 369.02061,820.26475 368.66077,820.86458 C 368.29483,821.46092 367.64763,822.02712 366.71912,822.56319 C 365.70017,823.15148 364.63491,823.54246 363.52335,823.73614 C 362.41782,823.92634 361.4534,823.91255 360.63007,823.69479 C 359.80673,823.47704 358.8433,823.04959 357.7398,822.41249 C 357.7398,822.41249 356.77573,821.85589 356.77573,821.85589 C 356.77573,821.85589 360.3119,819.81428 360.3119,819.81428 C 360.3119,819.81428 362.10359,820.84871 362.10359,820.84871 C 362.65531,821.16728 363.0583,821.3442 363.31238,821.37953 C 363.57248,821.41139 363.82921,821.35419 364.0824,821.20798 C 364.33567,821.06179 364.42255,820.89615 364.34301,820.71098 C 364.26956,820.52236 364.03577,820.31427 363.64165,820.08673 C 362.77463,819.58615 362.09013,819.32672 361.58821,819.30846 C 361.08025,819.29369 360.0407,819.37925 358.46961,819.56522 C 356.89243,819.74767 355.80766,819.8454 355.21514,819.85839 C 354.62272,819.8714 353.97237,819.7918 353.26411,819.61961 C 352.56191,819.44393 351.81974,819.13031 351.03758,818.67873 C 349.90982,818.02761 349.2269,817.46974 348.98883,817.00507 C 348.75682,816.53694 348.81482,816.03437 349.16289,815.49734 C 349.5049,814.95684 350.12808,814.4255 351.03248,813.90334 C 352.02128,813.33246 353.02301,812.93964 354.03773,812.72484 C 355.05849,812.5066 355.92599,812.47484 356.64016,812.62957 C 357.35435,812.77735 358.29651,813.18906 359.46674,813.86466 C 359.46674,813.86466 360.04879,814.20071 360.04879,814.20071 M 360.91922,808.55231 C 360.91922,808.55231 375.64371,817.0535 375.64371,817.0535 C 375.64371,817.0535 371.8362,819.25176 371.8362,819.25176 C 371.8362,819.25176 357.11171,810.75058 357.11171,810.75058 C 357.11171,810.75058 360.91922,808.55231 360.91922,808.55231 M 362.42953,807.68033 C 362.42953,807.68033 365.27835,806.03557 365.27835,806.03557 C 367.11728,804.97386 368.44414,804.30576 369.25909,804.03132 C 370.08001,803.75339 370.85332,803.62898 371.57901,803.65808 C 372.3047,803.68718 372.94926,803.81566 373.51264,804.04344 C 374.06998,804.26777 375.04594,804.78251 376.44045,805.58763 C 376.44045,805.58763 381.59721,808.56489 381.59721,808.56489 C 382.91898,809.32801 383.7409,809.87565 384.06298,810.20779 C 384.38498,810.53297 384.51961,810.85782 384.46675,811.18237 C 384.40787,811.50343 384.20384,811.82427 383.85474,812.14484 C 383.49952,812.4619 382.86673,812.88328 381.95633,813.4089 C 381.95633,813.4089 377.15402,816.18152 377.15402,816.18152 C 377.15402,816.18152 362.42953,807.68033 362.42953,807.68033 M 368.75626,806.93657 C 368.75626,806.93657 378.44225,812.52878 378.44225,812.52878 C 378.99091,812.21201 379.21948,811.9541 379.12774,811.75492 C 379.03002,811.55233 378.49005,811.16747 377.50779,810.60036 C 377.50779,810.60036 371.78714,807.29754 371.78714,807.29754 C 371.12019,806.91248 370.67169,806.67785 370.44146,806.59372 C 370.21126,806.50961 369.9784,806.48651 369.7428,806.52453 C 369.50114,806.55905 369.17229,806.69641 368.75626,806.93657 M 372.6672,801.76961 C 372.6672,801.76961 379.01605,798.1041 379.01605,798.1041 C 379.01605,798.1041 381.96277,799.80539 381.96277,799.80539 C 381.96277,799.80539 379.42144,801.27263 379.42144,801.27263 C 379.42144,801.27263 382.21352,802.88465 382.21352,802.88465 C 382.21352,802.88465 384.59204,801.51141 384.59204,801.51141 C 384.59204,801.51141 387.39323,803.12867 387.39323,803.12867 C 387.39323,803.12867 385.01471,804.50191 385.01471,804.50191 C 385.01471,804.50191 388.25248,806.37124 388.25248,806.37124 C 388.25248,806.37124 391.04703,804.7578 391.04703,804.7578 C 391.04703,804.7578 393.99375,806.45909 393.99375,806.45909 C 393.99375,806.45909 387.39169,810.27079 387.39169,810.27079 C 387.39169,810.27079 372.6672,801.76961 372.6672,801.76961 M 392.28342,790.44417 C 392.28342,790.44417 402.124,796.12563 402.124,796.12563 C 403.23963,796.76974 403.9886,797.24399 404.3711,797.54825 C 404.74745,797.84905 404.9972,798.24043 405.1205,798.72235 C 405.23768,799.20078 405.12819,799.68058 404.79194,800.16175 C 404.45565,800.63596 403.89259,801.10108 403.10277,801.55708 C 402.22851,802.06184 401.31123,802.42338 400.35099,802.64174 C 399.39067,802.86012 398.51132,802.93024 397.71283,802.85214 C 396.91437,802.77406 396.22726,802.60364 395.65158,802.34089 C 395.06987,802.07466 393.9484,801.46194 392.28705,800.50276 C 392.28705,800.50276 383.57424,795.47242 383.57424,795.47242 C 383.57424,795.47242 387.38172,793.27417 387.38172,793.27417 C 387.38172,793.27417 398.42283,799.64876 398.42283,799.64876 C 399.06552,800.01982 399.51092,800.23876 399.75915,800.30545 C 400.00732,800.36521 400.23693,800.33418 400.44795,800.21232 C 400.68913,800.07311 400.7459,799.92832 400.61816,799.77802 C 400.49042,799.62071 400.05967,799.33033 399.32602,798.90675 C 399.32602,798.90675 388.47592,792.64244 388.47592,792.64244 C 388.47592,792.64244 392.28342,790.44417 392.28342,790.44417 M 393.75757,789.59308 C 393.75757,789.59308 397.5922,787.37915 397.5922,787.37915 C 398.62923,786.78042 399.50694,786.36818 400.22534,786.14244 C 400.94977,785.91325 401.60526,785.80782 402.19182,785.82622 C 402.78441,785.84117 403.35026,785.94854 403.88936,786.14838 C 404.42838,786.34129 405.15874,786.70373 406.08033,787.23581 C 406.08033,787.23581 407.36271,787.97619 407.36271,787.97619 C 408.30253,788.5188 408.89122,788.97003 409.12873,789.32998 C 409.36628,789.68991 409.34102,790.08609 409.0529,790.51846 C 408.77081,790.94737 408.21374,791.40202 407.3817,791.8824 C 407.3817,791.8824 406.35975,792.47242 406.35975,792.47242 C 406.35975,792.47242 412.28957,795.896 412.28957,795.896 C 412.28957,795.896 408.48206,798.09426 408.48206,798.09426 C 408.48206,798.09426 393.75757,789.59308 393.75757,789.59308 M 400.08433,788.8493 C 400.08433,788.8493 403.83141,791.01268 403.83141,791.01268 C 403.94568,790.9534 404.04268,790.90144 404.12104,790.85619 C 404.47075,790.65429 404.62703,790.46606 404.58992,790.29145 C 404.55277,790.10986 404.26136,789.86155 403.71565,789.54648 C 403.71565,789.54648 402.50604,788.84812 402.50604,788.84812 C 402.0028,788.55757 401.59699,788.4138 401.28866,788.41679 C 400.98031,788.4198 400.57893,788.56401 400.08456,788.84943"
       style="font-size:16px;font-style:normal;font-weight:normal;fill:#000000;fill-opacity:1;font-family:IMPACT;-inkscape-font-specification:IMPACT"
       id="path2959" />
    <path
       id="path2961"
       d="M 352.8883,866.33856 L 337.54533,857.4803 L 429.60314,804.33069 L 444.94611,813.18896 L 352.8883,866.33856 z"
       style="fill:none;fill-rule:evenodd;stroke:#000000;stroke-width:1px;stroke-linecap:butt;stroke-linejoin:miter;stroke-opacity:1" />
    <path
       style="fill:none;fill-rule:evenodd;stroke:#000000;stroke-width:1px;stroke-linecap:butt;stroke-linejoin:miter;stroke-opacity:1"
       d="M 352.8883,937.2047 L 291.51643,901.77163 L 322.20236,884.0551 L 383.57424,919.48817 L 352.8883,937.2047 z"
       id="path3015" />
    <path
       style="fill:#000000;fill-opacity:1;stroke:none;display:inline"
       d="M 441.17714,901.8168 L 444.94612,901.77163 L 444.9449,908.28905 L 447.71547,908.28948 L 447.71669,901.74154 L 451.32344,901.71155 L 446.18351,889.98856 L 441.17714,901.8168 z"
       id="path3330" />
    <path
       id="path3332"
       d="M 602.32008,952.81895 C 602.32008,952.81895 613.71879,946.06297 613.71879,946.06297 C 613.71879,946.06297 613.7151,971.30233 613.7151,971.30233 C 613.7151,971.30233 622.09427,966.46625 622.09427,966.46625 C 622.09427,966.46625 622.09796,941.10872 622.09796,941.10872 C 622.09796,941.10872 633.00602,934.6948 633.00602,934.6948 C 633.00602,934.6948 617.46109,898.27509 617.46109,898.27509 C 617.46109,898.27509 602.32008,952.81895 602.32008,952.81895 C 602.32008,952.81895 602.32008,952.81895 602.32008,952.81895"
       style="fill:#000000;fill-opacity:1;stroke:none;display:inline" />
    <path
       id="path3334"
       d="M 368.23127,1016.9291 L 368.23127,946.06302 L 398.91721,963.77956 C 398.91721,963.77956 398.91721,1034.6456 398.91721,1034.6456 C 398.91721,1034.6456 368.24263,1017.1836 368.23127,1016.9291 z"
       style="fill:none;fill-rule:evenodd;stroke:#000000;stroke-width:1px;stroke-linecap:butt;stroke-linejoin:miter;stroke-opacity:1" />
    <path
       id="path3336"
       d="M 552.34691,1016.9292 C 552.34691,999.21258 552.34691,946.06302 552.34691,946.06302 L 583.03285,928.34648 C 583.03285,928.34648 583.03285,999.21258 583.03285,999.21258 L 552.34691,1016.9292 z"
       style="fill:none;fill-rule:evenodd;stroke:#000000;stroke-width:1px;stroke-linecap:butt;stroke-linejoin:miter;stroke-opacity:1" />
    <path
       id="path3338"
       d="M 245.84047,875.4006 C 245.84047,875.4006 257.0877,868.7321 257.0877,868.7321 C 257.0877,868.7321 278.94009,881.35285 278.94009,881.35285 C 278.94009,881.35285 287.3207,876.51596 287.3207,876.51596 C 287.3207,876.51596 265.36596,863.83613 265.36596,863.83613 C 265.36596,863.83613 276.17346,857.48029 276.17346,857.48029 C 276.17346,857.48029 221.31564,843.75786 221.31564,843.75786 C 221.31564,843.75786 245.84047,875.4006 245.84047,875.4006 C 245.84047,875.4006 245.84047,875.4006 245.84047,875.4006"
       style="fill:#000000;fill-opacity:1;stroke:none;display:inline" />
    <path
       style="fill:none;fill-rule:evenodd;stroke:#000000;stroke-width:1px;stroke-linecap:butt;stroke-linejoin:miter;stroke-opacity:1"
       d="M 230.14455,618.30706 L 230.14455,582.87399 C 230.14455,582.87399 260.83048,600.59052 260.83048,600.59052 L 260.83048,636.02359 L 230.14455,618.30706 L 230.14455,618.30706 z"
       id="path3531" />
    <path
       style="fill:none;fill-rule:evenodd;stroke:#000000;stroke-width:1px;stroke-linecap:butt;stroke-linejoin:miter;stroke-opacity:1"
       d="M 260.83048,636.02359 L 260.83048,600.59052 L 291.51642,582.87399 L 291.51642,618.30706 L 260.83048,636.02359 L 260.83048,636.02359 z"
       id="path3533" />
    <path
       style="fill:none;fill-rule:evenodd;stroke:#000000;stroke-width:1px;stroke-linecap:butt;stroke-linejoin:miter;stroke-opacity:1"
       d="M 260.83048,600.59052 C 260.83048,600.59052 245.48752,591.73226 245.48752,591.73226 C 245.48752,591.73226 276.17345,574.01572 276.17345,574.01572 L 291.51642,582.87399 L 260.83048,600.59052 z"
       id="path3535" />
    <path
       style="fill:none;fill-rule:evenodd;stroke:#000000;stroke-width:1px;stroke-linecap:butt;stroke-linejoin:miter;stroke-opacity:1"
       d="M 230.14455,582.87399 L 260.83048,565.15745 L 276.17345,574.01572 L 245.48752,591.73226 L 230.14455,582.87399 L 230.14455,582.87399 z"
       id="path3537" />
    <path
       id="path3539"
       d="M 153.4297,574.01573 L 153.4297,538.58266 C 153.4297,538.58266 184.11563,556.29919 184.11563,556.29919 L 184.11563,591.73226 L 153.4297,574.01573 L 153.4297,574.01573 z"
       style="fill:#d0a441;fill-opacity:1;fill-rule:evenodd;stroke:none;stroke-width:1px;stroke-linecap:butt;stroke-linejoin:miter;stroke-opacity:1" />
    <path
       id="path3541"
       d="M 184.11563,591.73226 L 184.11563,556.29919 L 214.80157,538.58266 L 214.80157,574.01573 L 184.11563,591.73226 L 184.11563,591.73226 z"
       style="fill:#b38e36;fill-opacity:1;fill-rule:evenodd;stroke:none;stroke-width:1px;stroke-linecap:butt;stroke-linejoin:miter;stroke-opacity:1" />
    <path
       id="path3543"
       d="M 184.11563,556.29919 C 184.11563,556.29919 168.77267,547.44093 168.77267,547.44093 C 168.77267,547.44093 199.4586,529.72439 199.4586,529.72439 L 214.80157,538.58266 L 184.11563,556.29919 z"
       style="fill:#dfb142;fill-opacity:1;fill-rule:evenodd;stroke:none;stroke-width:1px;stroke-linecap:butt;stroke-linejoin:miter;stroke-opacity:1" />
    <path
       id="path3545"
       d="M 153.4297,538.58266 L 184.11563,520.86612 L 199.4586,529.72439 L 168.77267,547.44093 L 153.4297,538.58266 L 153.4297,538.58266 z"
       style="fill:#dfb142;fill-opacity:1;fill-rule:evenodd;stroke:none;stroke-width:1px;stroke-linecap:butt;stroke-linejoin:miter;stroke-opacity:1" />
    <path
       style="fill:#9d782a;fill-opacity:1;fill-rule:evenodd;stroke:none;stroke-width:1px;stroke-linecap:butt;stroke-linejoin:miter;stroke-opacity:1"
       d="M 168.77266,554.52754 L 165.70407,552.75588 L 165.70407,545.66927 L 196.39001,527.95273 L 202.5272,531.49604 L 171.84126,549.21257 C 171.84126,549.21257 171.84126,556.29919 171.84126,556.29919 L 168.77266,554.52754 z"
       id="path4474" />
    <path
       style="fill:none;fill-rule:evenodd;stroke:#000000;stroke-width:1px;stroke-linecap:butt;stroke-linejoin:miter;stroke-opacity:1"
       d="M 30.685948,715.74801 L 30.685948,644.88187 L 92.057828,680.31494 L 92.057828,751.18108 L 30.685948,715.74801 L 30.685948,715.74801 z"
       id="path4476" />
    <path
       style="fill:none;fill-rule:evenodd;stroke:#000000;stroke-width:1px;stroke-linecap:butt;stroke-linejoin:miter;stroke-opacity:1"
       d="M 92.057828,751.18108 L 92.057828,680.31494 L 153.4297,644.88187 C 153.4297,644.88187 153.4297,715.74801 153.4297,715.74801 L 92.057828,751.18108 z"
       id="path4478" />
    <path
       style="fill:none;fill-rule:evenodd;stroke:#000000;stroke-width:1px;stroke-linecap:butt;stroke-linejoin:miter;stroke-opacity:1"
       d="M 92.057828,680.31494 L 30.685948,644.88187 L 92.057828,609.4488 L 153.4297,644.88187 L 92.057828,680.31494 z"
       id="path4480" />
    <path
       id="path4482"
       d="M 61.371886,910.6299 L 61.371886,839.76376 L 122.74377,875.19683 L 122.74377,946.06297 L 61.371886,910.6299 L 61.371886,910.6299 z"
       style="fill:#d0a441;fill-opacity:1;fill-rule:evenodd;stroke:none;stroke-width:1px;stroke-linecap:butt;stroke-linejoin:miter;stroke-opacity:1" />
    <path
       id="path4484"
       d="M 122.74377,946.06297 L 122.74377,875.19683 L 184.11564,839.76376 C 184.11564,839.76376 184.11564,910.6299 184.11564,910.6299 L 122.74377,946.06297 z"
       style="fill:#b38e36;fill-opacity:1;fill-rule:evenodd;stroke:none;stroke-width:1px;stroke-linecap:butt;stroke-linejoin:miter;stroke-opacity:1" />
    <path
       id="path4486"
       d="M 122.74377,875.19683 L 61.371886,839.76376 L 122.74377,804.33069 L 184.11564,839.76376 L 122.74377,875.19683 z"
       style="fill:#dfb142;fill-opacity:1;fill-rule:evenodd;stroke:none;stroke-width:1px;stroke-linecap:butt;stroke-linejoin:miter;stroke-opacity:1" />
    <path
       style="fill:#9d782a;fill-opacity:1;fill-rule:evenodd;stroke:none;stroke-width:1px;stroke-linecap:butt;stroke-linejoin:miter;stroke-opacity:1"
       d="M 92.057816,875.19683 L 88.989226,873.42518 L 88.989226,855.70864 L 150.36111,820.27557 L 156.4983,823.81888 L 95.126416,859.25195 L 95.126416,876.96848 L 92.057816,875.19683 z"
       id="path4488" />
    <path
       id="path4496"
       d="M 122.74376,379.13383 L 122.74376,166.5354 L 306.85942,272.83461 L 306.85942,485.43305 L 122.74376,379.13383 L 122.74376,379.13383 z"
       style="fill:#d0a441;fill-opacity:1;fill-rule:evenodd;stroke:none;stroke-width:1px;stroke-linecap:butt;stroke-linejoin:miter;stroke-opacity:1" />
    <path
       id="path4498"
       d="M 306.85942,485.43305 L 306.85942,272.83461 L 490.97503,166.5354 C 490.97503,166.5354 490.97503,379.13383 490.97503,379.13383 L 306.85942,485.43305 z"
       style="fill:#b38e36;fill-opacity:1;fill-rule:evenodd;stroke:none;stroke-width:1px;stroke-linecap:butt;stroke-linejoin:miter;stroke-opacity:1" />
    <path
       id="path4500"
       d="M 306.85942,272.83461 L 122.74376,166.5354 L 306.85942,60.23618 L 490.97503,166.5354 L 306.85942,272.83461 z"
       style="fill:#dfb142;fill-opacity:1;fill-rule:evenodd;stroke:none;stroke-width:1px;stroke-linecap:butt;stroke-linejoin:miter;stroke-opacity:1" />
    <path
       style="fill:#9d782a;fill-opacity:1;fill-rule:evenodd;stroke:none;stroke-width:1px;stroke-linecap:butt;stroke-linejoin:miter;stroke-opacity:1"
       d="M 214.80155,272.83461 L 205.59579,267.51966 L 205.59579,214.37004 L 389.71145,108.07083 L 408.12301,118.70075 L 224.00735,224.99997 L 224.00735,278.14957 L 214.80155,272.83461 z"
       id="path4502" />
    <path
       d="M 157.44719,276.91259 C 157.44719,276.91259 164.31187,280.87591 164.31187,280.87591 C 168.88828,283.51815 171.98277,285.5099 173.59528,286.85104 C 175.22313,288.20117 176.54386,290.01599 177.55743,292.29554 C 178.58636,294.56624 179.10084,297.54755 179.10084,301.23957 C 179.10084,304.61058 178.73993,306.66736 178.01818,307.40995 C 177.29636,308.15258 175.87579,308.02804 173.75656,307.0363 C 175.67616,308.69754 176.96617,310.18254 177.62655,311.49125 C 178.28689,312.79997 178.69386,313.89105 178.84744,314.7645 C 179.01636,315.62899 179.10084,317.80913 179.10084,321.30497 C 179.10084,321.30497 179.10084,332.72887 179.10084,332.72887 C 179.10084,332.72887 170.09385,327.52869 170.09385,327.52869 C 170.09385,327.52869 170.09385,313.1351 170.09385,313.1351 C 170.09385,310.81647 169.93258,309.28752 169.61011,308.54842 C 169.30296,307.81818 168.48134,307.06738 167.14527,306.296 C 167.14527,306.296 167.14527,325.82633 167.14527,325.82633 C 167.14527,325.82633 157.44719,320.22713 157.44719,320.22713 C 157.44719,320.22713 157.44719,276.91259 157.44719,276.91259 M 167.14527,289.92262 C 167.14527,289.92262 167.14527,299.55402 167.14527,299.55402 C 168.23561,300.18357 168.99579,300.45299 169.42582,300.36238 C 169.87114,300.26275 170.09385,299.25876 170.09385,297.3503 C 170.09385,297.3503 170.09385,294.96919 170.09385,294.96919 C 170.09385,293.59589 169.87882,292.57103 169.44883,291.89467 C 169.03419,291.22725 168.26633,290.56991 167.14527,289.92262 M 219.36736,312.66224 C 219.36736,312.66224 215.05976,353.48976 215.05976,353.48976 C 215.05976,353.48976 202.94288,346.49409 202.94288,346.49409 C 201.8372,339.2029 200.86193,331.07745 200.01736,322.11775 C 199.6334,325.51678 198.73502,332.56053 197.32217,343.24897 C 197.32217,343.24897 185.27446,336.29321 185.27446,336.29321 C 185.27446,336.29321 180.94371,290.47831 180.94371,290.47831 C 180.94371,290.47831 190.36538,295.91791 190.36538,295.91791 C 190.36538,295.91791 191.35591,311.60573 191.35591,311.60573 C 191.35591,311.60573 192.36948,326.77181 192.36948,326.77181 C 192.72267,319.43115 193.61337,310.04647 195.04162,298.61774 C 195.04162,298.61774 205.13129,304.44302 205.13129,304.44302 C 205.26954,305.78923 205.6227,310.7553 206.19101,319.34138 C 206.19101,319.34138 207.25062,336.4068 207.25062,336.4068 C 207.78812,326.24746 208.68649,316.51944 209.94584,307.22268 C 209.94584,307.22268 219.36736,312.66224 219.36736,312.66224 M 251.22592,331.05577 C 251.22592,331.05577 251.22592,374.37031 251.22592,374.37031 C 251.22592,374.37031 242.74883,369.47602 242.74883,369.47602 C 242.74883,369.47602 242.74883,340.23403 242.74883,340.23403 C 242.74883,340.23403 239.36246,367.52096 239.36246,367.52096 C 239.36246,367.52096 233.35017,364.04973 233.35017,364.04973 C 233.35017,364.04973 229.77956,333.41513 229.77956,333.41513 C 229.77956,333.41513 229.77956,361.98827 229.77956,361.98827 C 229.77956,361.98827 221.30248,357.09398 221.30248,357.09398 C 221.30248,357.09398 221.30248,313.77944 221.30248,313.77944 C 221.30248,313.77944 233.85698,321.02778 233.85698,321.02778 C 234.22555,323.84466 234.61709,327.13856 235.03174,330.90941 C 235.03174,330.90941 236.36787,342.7034 236.36787,342.7034 C 236.36787,342.7034 238.57924,323.75422 238.57924,323.75422 C 238.57924,323.75422 251.22592,331.05577 251.22592,331.05577"
       style="font-size:40px;font-style:normal;font-variant:normal;font-weight:bold;font-stretch:normal;fill:#000000;fill-opacity:1;font-family:Impact;-inkscape-font-specification:Impact Bold"
       id="path4490" />
    <path
       style="fill:#000000;fill-opacity:1;stroke:none;display:inline"
       d="M 311.72159,110.64819 C 311.72159,110.64819 321.41675,104.89992 321.41675,104.89992 C 321.41675,104.89992 340.25361,115.77906 340.25361,115.77906 C 340.25361,115.77906 347.47773,111.60964 347.47773,111.60964 C 347.47773,111.60964 328.55265,100.67957 328.55265,100.67957 C 328.55265,100.67957 337.86876,95.200809 337.86876,95.200809 C 337.86876,95.200809 290.58107,83.372009 290.58107,83.372009 C 290.58107,83.372009 311.72159,110.64819 311.72159,110.64819 C 311.72159,110.64819 311.72159,110.64819 311.72159,110.64819"
       id="path4492" />
    <path
       id="path4494"
       style="font-size:16px;font-style:normal;font-weight:normal;fill:#000000;fill-opacity:1;font-family:IMPACT;-inkscape-font-specification:IMPACT"
       d="M 177.14595,172.74039 C 177.14595,172.74039 181.16462,175.06057 181.16462,175.06057 C 181.16462,175.06057 178.08117,176.8408 178.08117,176.8408 C 178.08117,176.8408 194.14336,186.11432 194.14336,186.11432 C 194.14336,186.11432 188.95082,189.11221 188.95082,189.11221 C 188.95082,189.11221 172.88863,179.83871 172.88863,179.83871 C 172.88863,179.83871 169.81748,181.61184 169.81748,181.61184 C 169.81748,181.61184 165.79881,179.29167 165.79881,179.29167 C 165.79881,179.29167 177.14595,172.74039 177.14595,172.74039 M 190.2691,165.16372 C 190.2691,165.16372 210.34996,176.75742 210.34996,176.75742 C 210.34996,176.75742 205.15743,179.75533 205.15743,179.75533 C 205.15743,179.75533 196.72319,174.88582 196.72319,174.88582 C 196.72319,174.88582 195.16915,175.78305 195.16915,175.78305 C 195.16915,175.78305 203.60338,180.65257 203.60338,180.65257 C 203.60338,180.65257 198.41086,183.65047 198.41086,183.65047 C 198.41086,183.65047 178.33,172.05678 178.33,172.05678 C 178.33,172.05678 183.52253,169.05888 183.52253,169.05888 C 183.52253,169.05888 190.70397,173.20509 190.70397,173.20509 C 190.70397,173.20509 192.25802,172.30785 192.25802,172.30785 C 192.25802,172.30785 185.07658,168.16164 185.07658,168.16164 C 185.07658,168.16164 190.2691,165.16372 190.2691,165.16372 M 197.53374,160.9695 C 197.53374,160.9695 217.61461,172.56319 217.61461,172.56319 C 217.61461,172.56319 212.42208,175.5611 212.42208,175.5611 C 212.42208,175.5611 192.34121,163.96742 192.34121,163.96742 C 192.34121,163.96742 197.53374,160.9695 197.53374,160.9695 M 216.67282,156.93733 C 216.67282,156.93733 211.85033,159.72159 211.85033,159.72159 C 211.85033,159.72159 210.36194,158.86228 210.36194,158.86228 C 209.66732,158.46128 209.16324,158.24148 208.84975,158.20285 C 208.5363,158.16424 208.23561,158.22809 207.94779,158.3942 C 207.63537,158.57463 207.52498,158.78624 207.61695,159.02921 C 207.71698,159.26746 208.02758,159.5369 208.54851,159.83764 C 209.21829,160.22434 209.81313,160.46332 210.33304,160.55464 C 210.84474,160.65066 211.74328,160.60454 213.02869,160.41616 C 216.72015,159.87947 219.3083,159.69324 220.7934,159.85749 C 222.27839,160.02176 224.00484,160.67202 225.97286,161.80822 C 227.40333,162.63413 228.28907,163.34014 228.63001,163.92623 C 228.97914,164.50759 228.90833,165.20731 228.41759,166.02533 C 227.91857,166.83858 227.03589,167.61077 225.76963,168.34186 C 224.38004,169.14413 222.92727,169.67732 221.41135,169.94147 C 219.90367,170.20085 218.58839,170.18207 217.46553,169.88511 C 216.3427,169.58813 215.02879,169.00521 213.52386,168.13634 C 213.52386,168.13634 212.2091,167.37726 212.2091,167.37726 C 212.2091,167.37726 217.03163,164.59296 217.03163,164.59296 C 217.03163,164.59296 219.47508,166.00369 219.47508,166.00369 C 220.22754,166.43814 220.77715,166.6794 221.12364,166.72759 C 221.47832,166.77105 221.82846,166.69306 222.17377,166.49364 C 222.51915,166.29428 222.63768,166.06836 222.5292,165.81583 C 222.42899,165.55862 222.11014,165.27484 221.57266,164.96452 C 220.39024,164.28184 219.45675,163.92804 218.77226,163.90313 C 218.07954,163.88297 216.66178,163.99968 214.51921,164.25327 C 212.3683,164.5021 210.88886,164.6354 210.08085,164.65311 C 209.27287,164.67087 208.38596,164.5623 207.42008,164.32746 C 206.4624,164.08788 205.45026,163.66018 204.38361,163.0443 C 202.84555,162.15637 201.91424,161.39551 201.58957,160.76183 C 201.27313,160.12341 201.35226,159.43799 201.82696,158.70561 C 202.29338,157.9685 203.14325,157.24387 204.37664,156.53177 C 205.7251,155.75323 207.09127,155.21749 208.47513,154.92456 C 209.86722,154.62692 211.05024,154.58363 212.02424,154.79464 C 212.99821,154.99618 214.28313,155.55764 215.87902,156.47903 C 215.87902,156.47903 216.67282,156.93733 216.67282,156.93733 M 234.18685,146.82559 C 234.18685,146.82559 229.36433,149.60986 229.36433,149.60986 C 229.36433,149.60986 227.87596,148.75055 227.87596,148.75055 C 227.18136,148.34954 226.67724,148.12978 226.3638,148.09112 C 226.05031,148.05252 225.74965,148.11633 225.46179,148.2825 C 225.1494,148.46289 225.03903,148.67451 225.13095,148.91748 C 225.23104,149.15572 225.5416,149.42517 226.06253,149.72594 C 226.7323,150.11263 227.32714,150.35161 227.8471,150.4429 C 228.35874,150.53895 229.25734,150.4928 230.54269,150.30446 C 234.23416,149.76775 236.82236,149.58149 238.3074,149.74578 C 239.7924,149.91004 241.51888,150.56028 243.48687,151.69649 C 244.91738,152.5224 245.80308,153.2284 246.14403,153.8145 C 246.49315,154.39586 246.42239,155.09556 245.93165,155.91359 C 245.43259,156.72686 244.54995,157.49904 243.28367,158.23011 C 241.89405,159.03242 240.44128,159.56562 238.92537,159.82975 C 237.41767,160.08914 236.10243,160.07034 234.97959,159.77336 C 233.85674,159.47639 232.54283,158.89345 231.03792,158.02459 C 231.03792,158.02459 229.72315,157.26552 229.72315,157.26552 C 229.72315,157.26552 234.54568,154.48122 234.54568,154.48122 C 234.54568,154.48122 236.98914,155.89195 236.98914,155.89195 C 237.74156,156.32641 238.29114,156.56769 238.63765,156.61587 C 238.99238,156.65933 239.34249,156.58132 239.68779,156.38191 C 240.03319,156.18254 240.15168,155.95666 240.0432,155.70411 C 239.94303,155.44689 239.6242,155.1631 239.0867,154.85278 C 237.90428,154.17011 236.97078,153.81631 236.28628,153.7914 C 235.59353,153.77126 234.17582,153.88794 232.03321,154.14157 C 229.8823,154.39038 228.40292,154.52367 227.59485,154.54138 C 226.78693,154.55912 225.9,154.45057 224.93409,154.21574 C 223.97645,153.97616 222.96429,153.54845 221.89761,152.93259 C 220.3596,152.04461 219.42825,151.2838 219.10357,150.6501 C 218.78717,150.01167 218.86626,149.32628 219.34095,148.5939 C 219.80738,147.85678 220.65725,147.13215 221.89066,146.42003 C 223.23915,145.64149 224.60529,145.10577 225.98914,144.81284 C 227.38121,144.5152 228.56429,144.47189 229.53826,144.68291 C 230.51224,144.88444 231.79714,145.44593 233.39307,146.36729 C 233.39307,146.36729 234.18685,146.82559 234.18685,146.82559 M 235.37392,139.12244 C 235.37392,139.12244 255.45479,150.71614 255.45479,150.71614 C 255.45479,150.71614 250.26221,153.71407 250.26221,153.71407 C 250.26221,153.71407 230.18135,142.12039 230.18135,142.12039 C 230.18135,142.12039 235.37392,139.12244 235.37392,139.12244 M 237.43365,137.93327 C 237.43365,137.93327 241.31879,135.69018 241.31879,135.69018 C 243.82668,134.24226 245.6362,133.33111 246.74762,132.95685 C 247.86717,132.57781 248.92178,132.40815 249.91146,132.44782 C 250.90114,132.48752 251.78017,132.66274 252.5485,132.97337 C 253.30859,133.2793 254.63957,133.9813 256.54136,135.0793 C 256.54136,135.0793 263.57406,139.13961 263.57406,139.13961 C 265.37655,140.18033 266.49758,140.92719 266.93671,141.38015 C 267.37584,141.82363 267.55955,142.26665 267.4874,142.70926 C 267.40708,143.14712 267.12886,143.58467 266.65277,144.02184 C 266.16836,144.45424 265.30537,145.02891 264.06379,145.74574 C 264.06379,145.74574 257.51451,149.52696 257.51451,149.52696 C 257.51451,149.52696 237.43365,137.93327 237.43365,137.93327 M 246.06187,136.91895 C 246.06187,136.91895 259.27136,144.54545 259.27136,144.54545 C 260.01962,144.11345 260.33133,143.76172 260.20622,143.49009 C 260.07295,143.2138 259.33655,142.68894 257.99697,141.91553 C 257.99697,141.91553 250.1953,137.41123 250.1953,137.41123 C 249.28573,136.88609 248.67409,136.56611 248.36009,136.45138 C 248.04615,136.33667 247.72859,136.30516 247.40729,136.35702 C 247.07772,136.4041 246.62924,136.59143 246.06187,136.91895 M 251.39551,129.87239 C 251.39551,129.87239 260.0539,124.87346 260.0539,124.87346 C 260.0539,124.87346 264.07252,127.19364 264.07252,127.19364 C 264.07252,127.19364 260.60675,129.19462 260.60675,129.19462 C 260.60675,129.19462 264.41455,131.39305 264.41455,131.39305 C 264.41455,131.39305 267.65828,129.52026 267.65828,129.52026 C 267.65828,129.52026 271.47848,131.72583 271.47848,131.72583 C 271.47848,131.72583 268.23475,133.59863 268.23475,133.59863 C 268.23475,133.59863 272.65024,136.14797 272.65024,136.14797 C 272.65024,136.14797 276.46144,133.9476 276.46144,133.9476 C 276.46144,133.9476 280.48007,136.26778 280.48007,136.26778 C 280.48007,136.26778 271.47644,141.46607 271.47644,141.46607 C 271.47644,141.46607 251.39551,129.87239 251.39551,129.87239 M 278.14761,114.42706 C 278.14761,114.42706 291.56795,122.17528 291.56795,122.17528 C 293.08938,123.0537 294.11084,123.70046 294.63249,124.11541 C 295.14568,124.52563 295.48635,125.05939 295.6545,125.71661 C 295.8142,126.36908 295.665,127.02343 295.20637,127.67963 C 294.74774,128.32635 293.97993,128.96066 292.90268,129.58255 C 291.71046,130.27093 290.45948,130.76398 289.14998,131.06177 C 287.84021,131.3596 286.64105,131.45523 285.55208,131.34871 C 284.4631,131.24222 283.52605,131.00982 282.74093,130.65148 C 281.94763,130.28841 280.41829,129.45279 278.15252,128.14469 C 278.15252,128.14469 266.27023,121.28445 266.27023,121.28445 C 266.27023,121.28445 271.4628,118.28653 271.4628,118.28653 C 271.4628,118.28653 286.52036,126.98003 286.52036,126.98003 C 287.39686,127.48607 288.00428,127.78466 288.34278,127.87561 C 288.68125,127.95711 288.99438,127.91478 289.28214,127.7486 C 289.61108,127.55874 289.68855,127.36128 289.51425,127.15631 C 289.3401,126.94177 288.75258,126.54577 287.75212,125.96809 C 287.75212,125.96809 272.95504,117.42499 272.95504,117.42499 C 272.95504,117.42499 278.14761,114.42706 278.14761,114.42706 M 280.15795,113.26636 C 280.15795,113.26636 285.38761,110.24706 285.38761,110.24706 C 286.80184,109.43053 287.99883,108.86833 288.97856,108.56047 C 289.96647,108.24791 290.86043,108.10412 291.66042,108.12922 C 292.46859,108.14961 293.24021,108.29603 293.97542,108.56856 C 294.7105,108.83166 295.7066,109.32595 296.96345,110.05157 C 296.96345,110.05157 298.71235,111.06128 298.71235,111.06128 C 299.99403,111.80129 300.79688,112.41666 301.12078,112.90755 C 301.44468,113.39842 301.41031,113.93871 301.0174,114.52837 C 300.63268,115.11331 299.87293,115.73334 298.73827,116.38847 C 298.73827,116.38847 297.34449,117.19312 297.34449,117.19312 C 297.34449,117.19312 305.4314,121.86212 305.4314,121.86212 C 305.4314,121.86212 300.23882,124.86004 300.23882,124.86004 C 300.23882,124.86004 280.15795,113.26636 280.15795,113.26636 M 288.78627,112.25201 C 288.78627,112.25201 293.89646,115.20238 293.89646,115.20238 C 294.0522,115.12153 294.18449,115.05066 294.29142,114.98895 C 294.76832,114.71361 294.98149,114.45691 294.93089,114.21879 C 294.88016,113.97113 294.48276,113.63249 293.73854,113.20281 C 293.73854,113.20281 292.08892,112.25041 292.08892,112.25041 C 291.40267,111.85416 290.84924,111.65809 290.42866,111.66217 C 290.00821,111.66627 289.46079,111.86295 288.78654,112.25219" />
  </g>
</svg>
